<?xml version="1.0" encoding="UTF-8" standalone="no"?>
<!DOCTYPE svg PUBLIC "-//W3C//DTD SVG 1.1//EN" "http://www.w3.org/Graphics/SVG/1.1/DTD/svg11.dtd">
<svg xmlns="http://www.w3.org/2000/svg" version="1.1" viewBox="0.00 0.00 320.00 320.00">
<rect fill="#000000" x="-12.57" y="-100.10" transform="translate(160.00,159.97) rotate(14.0)" width="25.14" height="200.20" rx="4.41"/>
<path fill="#000000" d="
  M 132.24 137.45
  C 132.24 165.24 116.13 184.26 88.99 188.69
  Q 77.35 190.59 64.88 189.87
  C 62.19 189.71 60.82 188.69 60.73 186.00
  Q 60.70 184.76 60.79 170.26
  Q 60.81 166.56 65.00 166.62
  Q 73.41 166.75 79.72 166.12
  C 96.63 164.44 107.76 155.15 107.76 137.45
  C 107.76 119.75 96.63 110.46 79.72 108.77
  Q 73.41 108.14 65.00 108.27
  Q 60.81 108.33 60.79 104.63
  Q 60.70 90.13 60.73 88.89
  C 60.82 86.20 62.19 85.18 64.88 85.02
  Q 77.35 84.30 88.99 86.21
  C 116.13 90.64 132.25 109.65 132.24 137.45
  Z"
/>
<path fill="#000000" d="
  M 258.11 233.11
  C 256.36 234.28 254.15 234.12 252.02 234.19
  C 235.17 234.73 218.89 232.32 205.43 222.34
  C 194.11 213.93 188.56 200.76 187.86 186.69
  C 187.37 176.72 188.46 166.64 192.57 157.86
  C 200.36 141.20 217.32 131.26 235.52 129.83
  Q 246.27 128.98 255.47 129.32
  Q 259.04 129.46 259.19 133.27
  Q 259.33 136.84 259.24 147.25
  Q 259.22 149.38 258.67 150.68
  A 2.92 2.92 0.0 0 1 255.95 152.47
  Q 246.95 152.40 241.19 152.89
  C 228.56 153.96 217.15 159.72 213.48 172.18
  Q 210.76 181.38 213.43 191.10
  C 218.38 209.12 237.80 211.32 253.41 210.70
  C 256.80 210.56 259.17 211.37 259.24 215.00
  Q 259.28 217.24 259.28 228.75
  Q 259.28 230.71 258.73 232.30
  A 1.58 1.56 -7.8 0 1 258.11 233.11
  Z"
/>
</svg>
