<?xml version="1.0" encoding="UTF-8" standalone="no"?>
<!DOCTYPE svg PUBLIC "-//W3C//DTD SVG 1.1//EN" "http://www.w3.org/Graphics/SVG/1.1/DTD/svg11.dtd">
<svg xmlns="http://www.w3.org/2000/svg" version="1.1" viewBox="0.00 0.00 3515.00 894.00">
<path fill="#231f20" d="
  M 1206.27 812.85
  A 0.59 0.59 0.0 0 1 1205.68 813.44
  L 130.40 813.44
  A 0.59 0.59 0.0 0 1 129.81 812.85
  L 129.81 82.89
  A 0.59 0.59 0.0 0 1 130.40 82.30
  L 1205.68 82.30
  A 0.59 0.59 0.0 0 1 1206.27 82.89
  L 1206.27 812.85
  Z
  M 1185.26 103.17
  A 0.53 0.53 0.0 0 0 1184.73 102.64
  L 151.15 102.64
  A 0.53 0.53 0.0 0 0 150.62 103.17
  L 150.62 791.69
  A 0.53 0.53 0.0 0 0 151.15 792.22
  L 1184.73 792.22
  A 0.53 0.53 0.0 0 0 1185.26 791.69
  L 1185.26 103.17
  Z"
/>
<path fill="#000000" d="
  M 1357.12 140.52
  L 1357.12 175.58
  A 0.42 0.42 0.0 0 0 1357.54 176.00
  L 1421.01 176.00
  A 0.42 0.42 0.0 0 1 1421.43 176.42
  L 1421.43 201.85
  A 0.42 0.42 0.0 0 1 1421.01 202.27
  L 1357.55 202.27
  A 0.42 0.42 0.0 0 0 1357.13 202.69
  L 1357.13 267.51
  A 0.42 0.42 0.0 0 1 1356.71 267.93
  L 1326.22 267.93
  A 0.42 0.42 0.0 0 1 1325.80 267.51
  L 1325.80 114.25
  A 0.42 0.42 0.0 0 1 1326.22 113.83
  L 1431.31 113.83
  A 0.42 0.42 0.0 0 1 1431.73 114.25
  L 1431.73 139.68
  A 0.42 0.42 0.0 0 1 1431.31 140.10
  L 1357.54 140.10
  A 0.42 0.42 0.0 0 0 1357.12 140.52
  Z"
/>
<path fill="#000000" d="
  M 1794.41 252.92
  A 0.35 0.34 63.6 0 0 1793.79 252.71
  C 1778.34 273.49 1749.89 276.95 1730.53 259.22
  C 1720.01 249.59 1714.98 236.82 1713.43 222.78
  Q 1711.70 207.16 1714.55 192.32
  C 1718.55 171.55 1733.55 155.37 1755.00 153.39
  C 1769.75 152.03 1781.98 157.02 1791.74 167.83
  A 0.34 0.34 0.0 0 0 1792.33 167.60
  L 1792.33 114.23
  A 0.39 0.38 90.0 0 1 1792.71 113.84
  L 1821.66 113.84
  A 0.44 0.44 0.0 0 1 1822.10 114.28
  L 1822.10 267.45
  A 0.46 0.45 0.0 0 1 1821.64 267.90
  L 1795.05 267.90
  A 0.64 0.64 0.0 0 1 1794.41 267.26
  L 1794.41 252.92
  Z
  M 1792.41 211.86
  Q 1792.41 204.68 1791.08 197.52
  C 1788.91 185.85 1780.34 176.13 1767.83 176.12
  C 1755.31 176.11 1746.73 185.82 1744.55 197.49
  Q 1743.20 204.64 1743.20 211.82
  Q 1743.19 219.00 1744.53 226.16
  C 1746.70 237.83 1755.26 247.55 1767.78 247.56
  C 1780.30 247.57 1788.87 237.86 1791.06 226.19
  Q 1792.40 219.03 1792.41 211.86
  Z"
/>
<path fill="#000000" d="
  M 2045.75 252.93
  A 0.35 0.34 63.6 0 0 2045.13 252.72
  C 2029.68 273.50 2001.23 276.97 1981.87 259.24
  C 1971.34 249.61 1966.31 236.84 1964.76 222.80
  Q 1963.03 207.17 1965.87 192.33
  C 1969.87 171.56 1984.87 155.38 2006.32 153.39
  C 2021.07 152.03 2033.31 157.02 2043.07 167.83
  A 0.34 0.34 0.0 0 0 2043.66 167.60
  L 2043.65 114.22
  A 0.39 0.38 90.0 0 1 2044.03 113.83
  L 2072.98 113.83
  A 0.44 0.44 0.0 0 1 2073.42 114.27
  L 2073.45 267.45
  A 0.46 0.45 -0.0 0 1 2072.99 267.90
  L 2046.39 267.91
  A 0.64 0.64 0.0 0 1 2045.75 267.27
  L 2045.75 252.93
  Z
  M 2043.72 211.87
  Q 2043.73 204.69 2042.40 197.53
  C 2040.24 185.87 2031.69 176.14 2019.17 176.12
  C 2006.66 176.10 1998.08 185.81 1995.88 197.47
  Q 1994.54 204.62 1994.53 211.80
  Q 1994.52 218.97 1995.84 226.13
  C 1998.00 237.79 2006.56 247.52 2019.07 247.54
  C 2031.58 247.56 2040.16 237.85 2042.36 226.19
  Q 2043.71 219.04 2043.72 211.87
  Z"
/>
<path fill="#000000" d="
  M 2188.08 252.97
  L 2188.09 267.32
  A 0.64 0.64 0.0 0 1 2187.45 267.96
  L 2160.85 267.98
  A 0.46 0.45 -0.0 0 1 2160.39 267.53
  L 2160.29 114.28
  A 0.44 0.44 0.0 0 1 2160.73 113.84
  L 2189.70 113.82
  A 0.39 0.38 90.0 0 1 2190.08 114.21
  L 2190.11 167.61
  A 0.34 0.34 0.0 0 0 2190.70 167.84
  C 2200.46 157.01 2212.69 152.01 2227.45 153.37
  C 2248.91 155.33 2263.93 171.51 2267.95 192.29
  Q 2270.81 207.14 2269.09 222.76
  C 2267.54 236.81 2262.52 249.59 2252.00 259.23
  C 2232.64 276.98 2204.18 273.54 2188.70 252.76
  A 0.35 0.34 -63.7 0 0 2188.08 252.97
  Z
  M 2190.00 212.28
  Q 2190.15 219.45 2191.64 226.57
  C 2194.06 238.18 2202.83 247.71 2215.34 247.45
  C 2227.85 247.18 2236.20 237.29 2238.14 225.59
  Q 2239.32 218.41 2239.17 211.24
  Q 2239.02 204.06 2237.53 196.94
  C 2235.10 185.33 2226.34 175.80 2213.83 176.06
  C 2201.32 176.33 2192.97 186.22 2191.03 197.92
  Q 2189.85 205.10 2190.00 212.28
  Z"
/>
<path fill="#000000" d="
  M 1615.63 170.87
  A 0.34 0.34 0.0 0 0 1616.24 171.08
  C 1628.11 155.77 1646.76 149.66 1665.37 154.92
  C 1686.05 160.76 1689.87 177.41 1689.86 196.43
  Q 1689.85 230.35 1689.83 267.47
  A 0.49 0.49 0.0 0 1 1689.34 267.96
  L 1660.52 267.95
  A 0.52 0.52 0.0 0 1 1660.00 267.42
  Q 1660.14 228.17 1659.93 202.71
  C 1659.88 196.29 1659.55 187.79 1656.00 182.88
  Q 1650.81 175.73 1640.69 176.15
  C 1630.27 176.57 1621.06 183.66 1619.14 194.18
  Q 1617.79 201.57 1617.72 211.44
  Q 1617.55 234.73 1617.65 267.56
  A 0.36 0.36 0.0 0 1 1617.29 267.92
  L 1588.29 267.92
  A 0.46 0.46 0.0 0 1 1587.83 267.46
  L 1587.85 156.17
  A 0.37 0.37 0.0 0 1 1588.22 155.80
  L 1614.97 155.80
  A 0.67 0.67 0.0 0 1 1615.64 156.47
  L 1615.63 170.87
  Z"
/>
<path fill="#000000" d="
  M 1872.68 220.35
  C 1873.28 236.80 1883.44 250.33 1901.62 247.13
  C 1908.57 245.90 1913.58 239.06 1915.15 232.60
  A 0.79 0.79 0.0 0 1 1916.01 232.00
  L 1944.58 235.39
  A 0.52 0.51 -77.2 0 1 1945.00 236.07
  C 1936.44 260.57 1918.84 271.38 1893.20 270.58
  C 1861.95 269.59 1844.75 249.55 1842.40 219.57
  C 1841.19 204.06 1843.55 186.68 1852.93 173.62
  Q 1865.24 156.51 1885.94 153.58
  C 1891.01 152.86 1899.55 152.95 1904.69 153.97
  C 1938.04 160.53 1947.34 188.64 1946.62 219.19
  A 0.64 0.64 0.0 0 1 1945.98 219.82
  L 1873.23 219.78
  A 0.55 0.55 0.0 0 0 1872.68 220.35
  Z
  M 1873.65 201.39
  L 1916.57 201.39
  A 0.38 0.38 0.0 0 0 1916.95 201.01
  L 1916.95 199.21
  A 23.00 21.03 90.0 0 0 1895.92 176.21
  L 1894.30 176.21
  A 23.00 21.03 -90.0 0 0 1873.27 199.21
  L 1873.27 201.01
  A 0.38 0.38 0.0 0 0 1873.65 201.39
  Z"
/>
<path fill="#000000" d="
  M 1530.19 252.81
  A 0.34 0.34 0.0 0 0 1529.58 252.60
  C 1517.75 267.90 1499.14 274.01 1480.55 268.77
  C 1459.90 262.95 1456.08 246.33 1456.07 227.35
  Q 1456.07 193.49 1456.06 156.44
  A 0.49 0.49 0.0 0 1 1456.55 155.95
  L 1485.32 155.93
  A 0.52 0.52 0.0 0 1 1485.84 156.46
  Q 1485.72 195.64 1485.96 221.06
  C 1486.01 227.47 1486.34 235.96 1489.89 240.85
  Q 1495.07 247.99 1505.17 247.57
  C 1515.57 247.13 1524.76 240.05 1526.67 229.55
  Q 1528.02 222.17 1528.08 212.32
  Q 1528.23 189.07 1528.12 156.29
  A 0.36 0.36 0.0 0 1 1528.48 155.93
  L 1557.42 155.92
  A 0.46 0.46 0.0 0 1 1557.88 156.38
  L 1557.94 267.47
  A 0.37 0.37 0.0 0 1 1557.57 267.84
  L 1530.87 267.86
  A 0.67 0.67 0.0 0 1 1530.20 267.19
  L 1530.19 252.81
  Z"
/>
<path fill="#000000" d="
  M 2280.04 156.41
  A 0.41 0.41 0.0 0 1 2280.42 155.86
  L 2311.04 155.86
  A 0.75 0.75 0.0 0 1 2311.75 156.37
  L 2337.87 233.95
  A 0.31 0.31 0.0 0 0 2338.46 233.95
  L 2363.93 156.33
  A 0.69 0.68 -80.5 0 1 2364.58 155.86
  L 2394.37 155.86
  A 0.40 0.40 0.0 0 1 2394.75 156.40
  Q 2384.16 185.50 2348.62 282.87
  C 2342.91 298.53 2335.05 309.99 2317.27 312.71
  Q 2304.35 314.69 2290.45 312.00
  A 1.05 1.05 0.0 0 1 2289.60 311.09
  L 2287.04 288.91
  A 0.47 0.47 0.0 0 1 2287.61 288.40
  Q 2294.68 289.88 2301.74 289.61
  C 2308.12 289.36 2313.19 286.58 2316.73 280.90
  Q 2320.49 274.89 2322.15 268.58
  A 2.25 2.23 -48.6 0 0 2322.07 267.21
  L 2280.04 156.41
  Z"
/>
<path fill="#231f20" d="
  M 676.51 211.04
  L 702.73 211.00
  A 0.35 0.35 0.0 0 1 702.94 211.63
  L 681.70 227.02
  A 0.35 0.35 0.0 0 0 681.57 227.41
  L 689.71 252.34
  A 0.35 0.35 0.0 0 1 689.17 252.73
  L 667.98 237.29
  A 0.35 0.35 0.0 0 0 667.56 237.29
  L 646.37 252.73
  A 0.35 0.35 0.0 0 1 645.83 252.34
  L 653.97 227.41
  A 0.35 0.35 0.0 0 0 653.84 227.02
  L 632.60 211.63
  A 0.35 0.35 0.0 0 1 632.81 211.00
  L 659.03 211.04
  A 0.35 0.35 0.0 0 0 659.37 210.79
  L 667.44 185.84
  A 0.35 0.35 0.0 0 1 668.10 185.84
  L 676.17 210.79
  A 0.35 0.35 0.0 0 0 676.51 211.04
  Z"
/>
<path fill="#231f20" d="
  M 563.51 241.43
  L 589.66 241.42
  A 0.35 0.35 0.0 0 1 589.87 242.05
  L 568.70 257.41
  A 0.35 0.35 0.0 0 0 568.57 257.80
  L 576.67 282.66
  A 0.35 0.35 0.0 0 1 576.13 283.05
  L 554.99 267.67
  A 0.35 0.35 0.0 0 0 554.57 267.67
  L 533.43 283.05
  A 0.35 0.35 0.0 0 1 532.89 282.66
  L 540.99 257.80
  A 0.35 0.35 0.0 0 0 540.86 257.41
  L 519.69 242.05
  A 0.35 0.35 0.0 0 1 519.90 241.42
  L 546.05 241.43
  A 0.35 0.35 0.0 0 0 546.38 241.19
  L 554.45 216.32
  A 0.35 0.35 0.0 0 1 555.11 216.32
  L 563.18 241.19
  A 0.35 0.35 0.0 0 0 563.51 241.43
  Z"
/>
<path fill="#231f20" d="
  M 789.73 241.40
  L 815.89 241.40
  A 0.34 0.34 0.0 0 1 816.09 242.01
  L 794.92 257.38
  A 0.34 0.34 0.0 0 0 794.80 257.76
  L 802.89 282.64
  A 0.34 0.34 0.0 0 1 802.37 283.02
  L 781.21 267.64
  A 0.34 0.34 0.0 0 0 780.81 267.64
  L 759.65 283.02
  A 0.34 0.34 0.0 0 1 759.13 282.64
  L 767.22 257.76
  A 0.34 0.34 0.0 0 0 767.10 257.38
  L 745.93 242.01
  A 0.34 0.34 0.0 0 1 746.13 241.40
  L 772.29 241.40
  A 0.34 0.34 0.0 0 0 772.61 241.17
  L 780.69 216.29
  A 0.34 0.34 0.0 0 1 781.33 216.29
  L 789.41 241.17
  A 0.34 0.34 0.0 0 0 789.73 241.40
  Z"
/>
<path fill="#231f20" d="
  M 480.80 324.22
  L 507.07 324.19
  A 0.33 0.33 0.0 0 1 507.26 324.79
  L 486.00 340.21
  A 0.33 0.33 0.0 0 0 485.88 340.58
  L 494.02 365.55
  A 0.33 0.33 0.0 0 1 493.51 365.92
  L 472.27 350.46
  A 0.33 0.33 0.0 0 0 471.89 350.46
  L 450.65 365.92
  A 0.33 0.33 0.0 0 1 450.14 365.55
  L 458.28 340.58
  A 0.33 0.33 0.0 0 0 458.16 340.21
  L 436.90 324.79
  A 0.33 0.33 0.0 0 1 437.09 324.19
  L 463.36 324.22
  A 0.33 0.33 0.0 0 0 463.67 323.99
  L 471.77 299.00
  A 0.33 0.33 0.0 0 1 472.39 299.00
  L 480.49 323.99
  A 0.33 0.33 0.0 0 0 480.80 324.22
  Z"
/>
<path fill="#231f20" d="
  M 872.18 323.92
  L 898.51 323.92
  A 0.30 0.30 0.0 0 1 898.68 324.46
  L 877.38 339.93
  A 0.30 0.30 0.0 0 0 877.27 340.27
  L 885.41 365.31
  A 0.30 0.30 0.0 0 1 884.95 365.65
  L 863.65 350.17
  A 0.30 0.30 0.0 0 0 863.29 350.17
  L 841.99 365.65
  A 0.30 0.30 0.0 0 1 841.53 365.31
  L 849.67 340.27
  A 0.30 0.30 0.0 0 0 849.56 339.93
  L 828.26 324.46
  A 0.30 0.30 0.0 0 1 828.43 323.92
  L 854.76 323.92
  A 0.30 0.30 0.0 0 0 855.05 323.71
  L 863.18 298.67
  A 0.30 0.30 0.0 0 1 863.76 298.67
  L 871.89 323.71
  A 0.30 0.30 0.0 0 0 872.18 323.92
  Z"
/>
<path fill="#000000" d="
  M 1426.07 427.10
  A 0.32 0.31 65.6 0 0 1426.62 427.31
  Q 1436.73 415.59 1450.65 412.49
  C 1461.63 410.05 1474.21 411.83 1483.42 417.89
  C 1496.33 426.38 1498.07 441.14 1498.08 455.75
  Q 1498.09 490.74 1498.10 525.71
  A 0.53 0.53 0.0 0 1 1497.57 526.24
  L 1468.88 526.24
  A 0.57 0.56 -90.0 0 1 1468.32 525.67
  Q 1468.35 478.64 1468.29 460.27
  C 1468.24 449.29 1467.70 436.74 1454.02 434.75
  C 1443.03 433.16 1432.51 437.99 1428.71 448.78
  Q 1426.05 456.31 1426.05 467.25
  Q 1426.05 474.50 1426.07 525.78
  A 0.46 0.46 0.0 0 1 1425.61 526.24
  L 1396.63 526.24
  A 0.32 0.32 0.0 0 1 1396.31 525.92
  L 1396.31 372.64
  A 0.51 0.51 0.0 0 1 1396.82 372.13
  L 1425.34 372.13
  A 0.73 0.73 0.0 0 1 1426.07 372.86
  L 1426.07 427.10
  Z"
/>
<path fill="#000000" d="
  M 1825.81 500.39
  L 1825.81 525.81
  A 0.42 0.42 0.0 0 1 1825.39 526.23
  L 1708.70 526.23
  A 0.42 0.42 0.0 0 1 1708.28 525.81
  L 1708.28 372.55
  A 0.42 0.42 0.0 0 1 1708.70 372.13
  L 1822.28 372.13
  A 0.42 0.42 0.0 0 1 1822.70 372.55
  L 1822.70 397.98
  A 0.42 0.42 0.0 0 1 1822.28 398.40
  L 1739.97 398.40
  A 0.42 0.42 0.0 0 0 1739.55 398.82
  L 1739.55 432.14
  A 0.42 0.42 0.0 0 0 1739.97 432.56
  L 1816.64 432.56
  A 0.42 0.42 0.0 0 1 1817.06 432.98
  L 1817.06 458.40
  A 0.42 0.42 0.0 0 1 1816.64 458.82
  L 1739.98 458.82
  A 0.42 0.42 0.0 0 0 1739.56 459.24
  L 1739.56 499.55
  A 0.42 0.42 0.0 0 0 1739.98 499.97
  L 1825.39 499.97
  A 0.42 0.42 0.0 0 1 1825.81 500.39
  Z"
/>
<path fill="#000000" d="
  M 2853.32 372.13
  L 2883.34 372.13
  A 0.47 0.47 0.0 0 1 2883.81 372.60
  Q 2883.83 447.83 2883.80 455.00
  Q 2883.75 467.92 2883.15 477.40
  Q 2882.27 491.32 2879.25 499.30
  C 2871.47 519.86 2850.49 528.63 2829.26 528.87
  C 2814.30 529.04 2799.83 528.89 2787.08 522.26
  Q 2772.55 514.71 2766.07 500.56
  Q 2762.95 493.75 2761.81 481.72
  Q 2760.70 470.08 2760.66 462.31
  Q 2760.53 442.22 2760.61 372.45
  A 0.31 0.31 0.0 0 1 2760.92 372.14
  L 2791.32 372.14
  A 0.57 0.56 0.0 0 1 2791.89 372.70
  Q 2791.79 420.08 2791.96 460.50
  Q 2791.99 466.72 2792.24 472.09
  Q 2792.63 480.23 2793.62 483.55
  C 2798.73 500.63 2815.22 503.91 2830.93 501.93
  C 2840.98 500.66 2849.74 493.38 2851.10 483.35
  Q 2852.23 474.91 2852.28 469.00
  C 2852.33 461.94 2852.56 455.68 2852.56 450.32
  Q 2852.52 395.42 2852.56 372.89
  A 0.76 0.76 0.0 0 1 2853.32 372.13
  Z"
/>
<rect fill="#000000" x="-14.89" y="-13.57" transform="translate(3061.79,385.71) rotate(-0.1)" width="29.78" height="27.14" rx="0.51"/>
<path fill="#000000" d="
  M 1326.66 413.54
  L 1326.66 392.71
  A 1.21 1.20 -15.2 0 1 1327.26 391.67
  L 1355.87 375.16
  A 0.51 0.50 74.8 0 1 1356.63 375.60
  L 1356.63 413.78
  A 0.39 0.38 0.0 0 0 1357.02 414.16
  L 1376.31 414.16
  A 0.43 0.43 0.0 0 1 1376.74 414.59
  L 1376.74 436.48
  A 0.44 0.44 0.0 0 1 1376.30 436.92
  L 1357.05 436.92
  A 0.42 0.42 0.0 0 0 1356.63 437.34
  Q 1356.60 482.61 1356.69 493.76
  C 1356.72 497.36 1357.07 501.08 1360.31 503.11
  C 1364.24 505.57 1371.49 503.32 1375.76 501.62
  A 0.70 0.70 0.0 0 1 1376.72 502.19
  L 1379.22 523.86
  A 0.99 0.99 0.0 0 1 1378.59 524.89
  Q 1363.61 530.61 1347.76 528.25
  Q 1344.20 527.72 1339.07 525.19
  C 1326.37 518.92 1326.82 503.45 1326.72 490.75
  Q 1326.61 478.57 1326.68 437.59
  A 0.67 0.66 -90.0 0 0 1326.02 436.92
  L 1313.68 436.92
  A 0.59 0.58 -0.0 0 1 1313.09 436.34
  L 1313.09 414.74
  A 0.58 0.57 0.0 0 1 1313.67 414.17
  L 1326.03 414.17
  A 0.63 0.63 0.0 0 0 1326.66 413.54
  Z"
/>
<path fill="#231f20" d="
  M 450.44 437.17
  L 476.86 437.10
  A 0.30 0.30 0.0 0 1 477.04 437.64
  L 455.62 453.12
  A 0.30 0.30 0.0 0 0 455.51 453.45
  L 463.75 478.56
  A 0.30 0.30 0.0 0 1 463.28 478.90
  L 441.95 463.31
  A 0.30 0.30 0.0 0 0 441.59 463.31
  L 420.26 478.90
  A 0.30 0.30 0.0 0 1 419.79 478.56
  L 428.03 453.45
  A 0.30 0.30 0.0 0 0 427.92 453.12
  L 406.50 437.64
  A 0.30 0.30 0.0 0 1 406.68 437.10
  L 433.10 437.17
  A 0.30 0.30 0.0 0 0 433.38 436.96
  L 441.48 411.81
  A 0.30 0.30 0.0 0 1 442.06 411.81
  L 450.16 436.96
  A 0.30 0.30 0.0 0 0 450.44 437.17
  Z"
/>
<path fill="#231f20" d="
  M 902.19 436.76
  L 928.39 436.74
  A 0.34 0.34 0.0 0 1 928.59 437.36
  L 907.38 452.74
  A 0.34 0.34 0.0 0 0 907.26 453.12
  L 915.37 478.04
  A 0.34 0.34 0.0 0 1 914.85 478.42
  L 893.66 463.01
  A 0.34 0.34 0.0 0 0 893.26 463.01
  L 872.07 478.42
  A 0.34 0.34 0.0 0 1 871.55 478.04
  L 879.66 453.12
  A 0.34 0.34 0.0 0 0 879.54 452.74
  L 858.33 437.36
  A 0.34 0.34 0.0 0 1 858.53 436.74
  L 884.73 436.76
  A 0.34 0.34 0.0 0 0 885.05 436.52
  L 893.14 411.60
  A 0.34 0.34 0.0 0 1 893.78 411.60
  L 901.87 436.52
  A 0.34 0.34 0.0 0 0 902.19 436.76
  Z"
/>
<path fill="#000000" d="
  M 1550.43 478.66
  C 1551.04 495.12 1561.21 508.64 1579.39 505.43
  C 1586.34 504.20 1591.35 497.35 1592.92 490.89
  A 0.79 0.79 0.0 0 1 1593.78 490.29
  L 1622.35 493.67
  A 0.52 0.51 -77.2 0 1 1622.77 494.35
  C 1614.23 518.86 1596.63 529.68 1570.98 528.89
  C 1539.73 527.92 1522.51 507.88 1520.15 477.90
  C 1518.93 462.39 1521.28 445.00 1530.66 431.94
  Q 1542.96 414.82 1563.66 411.87
  C 1568.73 411.15 1577.27 411.24 1582.42 412.26
  C 1615.77 418.80 1625.09 446.91 1624.39 477.46
  A 0.64 0.64 0.0 0 1 1623.75 478.09
  L 1550.98 478.09
  A 0.55 0.55 0.0 0 0 1550.43 478.66
  Z
  M 1551.37 459.65
  L 1594.33 459.73
  A 0.37 0.37 0.0 0 0 1594.70 459.36
  L 1594.70 457.48
  A 22.99 21.26 -89.9 0 0 1573.48 434.45
  L 1572.30 434.45
  A 22.99 21.26 -89.9 0 0 1551.00 457.40
  L 1551.00 459.28
  A 0.37 0.37 0.0 0 0 1551.37 459.65
  Z"
/>
<path fill="#000000" d="
  M 2010.31 428.38
  Q 2013.48 423.05 2017.77 418.53
  C 2027.28 408.51 2042.92 410.14 2053.95 416.83
  A 0.60 0.59 -64.8 0 1 2054.20 417.54
  L 2045.38 442.14
  A 0.59 0.58 25.3 0 1 2044.53 442.44
  C 2036.70 437.88 2026.97 435.23 2019.63 442.42
  C 2014.50 447.45 2012.80 457.47 2012.32 464.78
  C 2011.01 485.21 2011.41 502.46 2011.45 525.85
  A 0.39 0.38 -0.0 0 1 2011.06 526.23
  L 1982.08 526.23
  A 0.41 0.41 0.0 0 1 1981.67 525.82
  L 1981.67 414.58
  A 0.41 0.41 0.0 0 1 1982.08 414.17
  L 2009.13 414.17
  A 0.39 0.38 -0.0 0 1 2009.52 414.55
  L 2009.52 428.16
  A 0.43 0.42 60.5 0 0 2010.31 428.38
  Z"
/>
<path fill="#000000" d="
  M 2059.34 470.95
  C 2058.96 448.70 2069.34 427.15 2089.89 417.34
  Q 2106.54 409.39 2126.96 412.13
  C 2154.32 415.81 2173.07 438.01 2174.77 465.33
  C 2175.76 481.28 2171.86 496.74 2161.23 509.20
  Q 2147.81 524.94 2128.02 528.11
  Q 2110.32 530.95 2093.32 524.46
  C 2069.95 515.53 2059.74 494.99 2059.34 470.95
  Z
  M 2089.94 470.20
  Q 2089.93 477.11 2091.40 483.03
  C 2094.43 495.25 2104.02 504.16 2117.06 504.16
  C 2130.09 504.17 2139.69 495.27 2142.73 483.06
  Q 2144.20 477.13 2144.20 470.22
  Q 2144.21 463.31 2142.74 457.38
  C 2139.71 445.17 2130.12 436.26 2117.08 436.25
  C 2104.05 436.25 2094.45 445.15 2091.42 457.36
  Q 2089.94 463.28 2089.94 470.20
  Z"
/>
<path fill="#000000" d="
  M 2225.72 429.58
  C 2226.62 428.74 2227.80 426.62 2229.07 425.26
  Q 2243.09 410.17 2263.72 411.57
  C 2271.94 412.13 2279.65 415.10 2286.28 420.25
  C 2304.34 434.25 2308.13 456.40 2306.36 478.92
  C 2305.14 494.47 2299.53 508.64 2287.58 518.83
  Q 2274.69 529.83 2257.27 528.88
  C 2244.86 528.20 2236.05 522.11 2227.78 513.51
  A 0.27 0.26 23.2 0 0 2227.32 513.69
  L 2227.32 568.73
  A 0.42 0.42 0.0 0 1 2226.90 569.15
  L 2198.18 569.15
  A 0.64 0.64 0.0 0 1 2197.54 568.51
  L 2197.54 414.47
  A 0.31 0.30 -90.0 0 1 2197.84 414.16
  L 2224.93 414.16
  A 0.41 0.40 -90.0 0 1 2225.33 414.57
  L 2225.33 429.42
  A 0.23 0.23 0.0 0 0 2225.72 429.58
  Z
  M 2227.29 470.63
  Q 2227.44 477.80 2228.92 484.93
  C 2231.33 496.55 2240.09 506.09 2252.60 505.84
  C 2265.11 505.60 2273.48 495.71 2275.43 484.00
  Q 2276.63 476.82 2276.48 469.65
  Q 2276.34 462.47 2274.86 455.35
  C 2272.45 443.73 2263.69 434.18 2251.18 434.43
  C 2238.67 434.68 2230.29 444.57 2228.35 456.27
  Q 2227.15 463.45 2227.29 470.63
  Z"
/>
<path fill="#000000" d="
  M 2351.68 478.66
  C 2352.29 495.12 2362.46 508.64 2380.64 505.42
  C 2387.59 504.19 2392.60 497.34 2394.17 490.88
  A 0.79 0.79 0.0 0 1 2395.03 490.28
  L 2423.59 493.66
  A 0.52 0.51 -77.2 0 1 2424.01 494.33
  C 2415.48 518.84 2397.88 529.67 2372.24 528.88
  C 2340.99 527.92 2323.77 507.89 2321.40 477.91
  C 2320.18 462.40 2322.52 445.01 2331.90 431.95
  Q 2344.19 414.83 2364.89 411.87
  C 2369.96 411.15 2378.50 411.24 2383.65 412.26
  C 2417.00 418.79 2426.32 446.90 2425.63 477.45
  A 0.64 0.64 0.0 0 1 2424.99 478.08
  L 2352.23 478.09
  A 0.55 0.55 0.0 0 0 2351.68 478.66
  Z
  M 2352.65 459.69
  L 2395.59 459.69
  A 0.38 0.38 0.0 0 0 2395.97 459.31
  L 2395.97 457.44
  A 22.99 21.29 -90.0 0 0 2374.68 434.45
  L 2373.56 434.45
  A 22.99 21.29 90.0 0 0 2352.27 457.44
  L 2352.27 459.31
  A 0.38 0.38 0.0 0 0 2352.65 459.69
  Z"
/>
<path fill="#000000" d="
  M 2545.88 525.58
  A 0.45 0.45 0.0 0 1 2545.47 526.23
  L 2517.26 526.23
  A 0.83 0.82 80.6 0 1 2516.48 525.67
  L 2513.26 516.10
  A 0.94 0.93 -30.3 0 0 2511.75 515.71
  Q 2495.09 530.62 2473.04 528.73
  C 2453.39 527.05 2439.67 512.92 2441.27 492.50
  Q 2442.63 475.15 2458.01 467.01
  Q 2461.64 465.09 2468.19 463.17
  C 2479.88 459.75 2497.14 457.81 2510.12 452.78
  A 0.77 0.77 0.0 0 0 2510.60 452.08
  C 2510.68 445.31 2509.77 438.08 2502.11 435.89
  Q 2493.49 433.42 2484.48 435.03
  C 2477.48 436.29 2473.80 441.27 2471.44 447.69
  A 0.83 0.82 -76.0 0 1 2470.57 448.22
  L 2444.72 445.16
  A 0.49 0.49 0.0 0 1 2444.30 444.56
  C 2447.18 432.53 2454.02 421.62 2465.47 416.23
  C 2473.54 412.43 2482.76 411.53 2492.96 411.49
  C 2506.73 411.44 2519.78 412.61 2530.08 421.16
  Q 2536.40 426.40 2538.10 434.45
  Q 2539.74 442.23 2539.69 450.01
  Q 2539.53 474.39 2539.51 497.24
  Q 2539.49 512.30 2545.88 525.58
  Z
  M 2510.12 472.33
  Q 2501.91 474.67 2487.60 477.86
  Q 2482.12 479.08 2477.97 481.16
  C 2470.33 484.99 2468.93 493.92 2473.54 500.86
  C 2479.00 509.08 2490.18 509.08 2498.23 504.93
  Q 2510.21 498.75 2510.41 485.30
  Q 2510.55 475.06 2510.58 472.68
  A 0.36 0.36 0.0 0 0 2510.12 472.33
  Z"
/>
<path fill="#000000" d="
  M 2596.40 429.19
  A 0.34 0.34 0.0 0 0 2597.01 429.40
  C 2608.87 414.07 2627.52 407.96 2646.14 413.22
  C 2666.82 419.06 2670.64 435.71 2670.64 454.73
  Q 2670.64 488.65 2670.63 525.77
  A 0.49 0.49 0.0 0 1 2670.14 526.26
  L 2641.31 526.26
  A 0.52 0.52 0.0 0 1 2640.79 525.73
  Q 2640.93 486.48 2640.70 461.01
  C 2640.65 454.59 2640.32 446.09 2636.77 441.18
  Q 2631.58 434.03 2621.46 434.45
  C 2611.04 434.88 2601.83 441.98 2599.91 452.50
  Q 2598.56 459.89 2598.49 469.76
  Q 2598.34 493.05 2598.44 525.89
  A 0.36 0.36 0.0 0 1 2598.08 526.25
  L 2569.08 526.25
  A 0.46 0.46 0.0 0 1 2568.62 525.79
  L 2568.61 414.49
  A 0.37 0.37 0.0 0 1 2568.98 414.12
  L 2595.73 414.12
  A 0.67 0.67 0.0 0 1 2596.40 414.79
  L 2596.40 429.19
  Z"
/>
<path fill="#000000" d="
  M 2943.19 429.18
  A 0.34 0.34 0.0 0 0 2943.80 429.39
  C 2955.66 414.07 2974.31 407.96 2992.93 413.22
  C 3013.61 419.06 3017.43 435.71 3017.43 454.73
  Q 3017.42 488.65 3017.41 525.77
  A 0.49 0.49 0.0 0 1 3016.92 526.26
  L 2988.09 526.26
  A 0.52 0.52 0.0 0 1 2987.57 525.73
  Q 2987.71 486.48 2987.49 461.01
  C 2987.44 454.59 2987.11 446.09 2983.56 441.18
  Q 2978.37 434.03 2968.25 434.45
  C 2957.83 434.88 2948.62 441.97 2946.70 452.49
  Q 2945.35 459.88 2945.28 469.75
  Q 2945.12 493.04 2945.22 525.88
  A 0.36 0.36 0.0 0 1 2944.86 526.24
  L 2915.86 526.24
  A 0.46 0.46 0.0 0 1 2915.40 525.78
  L 2915.40 414.48
  A 0.37 0.37 0.0 0 1 2915.77 414.11
  L 2942.52 414.11
  A 0.67 0.67 0.0 0 1 2943.19 414.78
  L 2943.19 429.18
  Z"
/>
<path fill="#000000" d="
  M 3131.08 417.34
  Q 3147.73 409.39 3168.15 412.13
  C 3195.51 415.81 3214.26 438.01 3215.96 465.33
  C 3216.95 481.28 3213.05 496.74 3202.42 509.20
  Q 3189.00 524.94 3169.21 528.11
  Q 3151.51 530.95 3134.51 524.46
  C 3111.14 515.53 3100.93 494.99 3100.53 470.95
  C 3100.15 448.70 3110.53 427.15 3131.08 417.34
  Z
  M 3185.39 470.20
  Q 3185.39 463.29 3183.92 457.37
  C 3180.88 445.15 3171.29 436.25 3158.25 436.25
  C 3145.22 436.25 3135.63 445.15 3132.59 457.37
  Q 3131.12 463.29 3131.12 470.21
  Q 3131.12 477.12 3132.60 483.05
  C 3135.63 495.26 3145.23 504.16 3158.26 504.16
  C 3171.29 504.16 3180.89 495.26 3183.92 483.04
  Q 3185.39 477.12 3185.39 470.20
  Z"
/>
<path fill="#000000" d="
  M 3266.31 429.18
  A 0.34 0.34 0.0 0 0 3266.92 429.39
  C 3278.78 414.07 3297.43 407.96 3316.05 413.22
  C 3336.73 419.05 3340.56 435.71 3340.56 454.73
  Q 3340.55 488.65 3340.54 525.77
  A 0.49 0.49 0.0 0 1 3340.05 526.26
  L 3311.22 526.27
  A 0.52 0.52 0.0 0 1 3310.70 525.74
  Q 3310.84 486.48 3310.62 461.01
  C 3310.57 454.59 3310.23 446.09 3306.68 441.18
  Q 3301.49 434.03 3291.37 434.45
  C 3280.95 434.88 3271.74 441.97 3269.82 452.49
  Q 3268.47 459.88 3268.40 469.75
  Q 3268.25 493.05 3268.35 525.89
  A 0.36 0.36 0.0 0 1 3267.99 526.25
  L 3238.99 526.25
  A 0.46 0.46 0.0 0 1 3238.53 525.79
  L 3238.52 414.48
  A 0.37 0.37 0.0 0 1 3238.89 414.11
  L 3265.64 414.11
  A 0.67 0.67 0.0 0 1 3266.31 414.78
  L 3266.31 429.18
  Z"
/>
<path fill="#000000" d="
  M 1925.16 511.09
  A 0.34 0.34 0.0 0 0 1924.55 510.88
  C 1912.73 526.19 1894.11 532.32 1875.50 527.09
  C 1854.84 521.29 1851.00 504.66 1850.98 485.66
  Q 1850.95 451.79 1850.91 414.71
  A 0.49 0.49 0.0 0 1 1851.40 414.22
  L 1880.19 414.19
  A 0.52 0.52 0.0 0 1 1880.71 414.71
  Q 1880.62 453.92 1880.87 479.35
  C 1880.93 485.77 1881.27 494.25 1884.83 499.15
  Q 1890.02 506.29 1900.12 505.86
  C 1910.53 505.41 1919.72 498.32 1921.62 487.81
  Q 1922.96 480.43 1923.02 470.57
  Q 1923.15 447.31 1923.01 414.51
  A 0.36 0.36 0.0 0 1 1923.37 414.15
  L 1952.33 414.11
  A 0.46 0.46 0.0 0 1 1952.79 414.57
  L 1952.94 525.73
  A 0.37 0.37 0.0 0 1 1952.57 526.10
  L 1925.85 526.14
  A 0.67 0.67 0.0 0 1 1925.18 525.47
  L 1925.16 511.09
  Z"
/>
<rect fill="#000000" x="3046.94" y="414.16" width="29.74" height="112.06" rx="0.44"/>
<path fill="#231f20" d="
  M 480.79 550.31
  L 506.99 550.30
  A 0.33 0.33 0.0 0 1 507.19 550.89
  L 485.98 566.28
  A 0.33 0.33 0.0 0 0 485.86 566.65
  L 493.97 591.57
  A 0.33 0.33 0.0 0 1 493.46 591.94
  L 472.27 576.52
  A 0.33 0.33 0.0 0 0 471.89 576.52
  L 450.70 591.94
  A 0.33 0.33 0.0 0 1 450.19 591.57
  L 458.30 566.65
  A 0.33 0.33 0.0 0 0 458.18 566.28
  L 436.97 550.89
  A 0.33 0.33 0.0 0 1 437.17 550.30
  L 463.37 550.31
  A 0.33 0.33 0.0 0 0 463.68 550.08
  L 471.77 525.16
  A 0.33 0.33 0.0 0 1 472.39 525.16
  L 480.48 550.08
  A 0.33 0.33 0.0 0 0 480.79 550.31
  Z"
/>
<path fill="#231f20" d="
  M 872.19 550.29
  L 898.32 550.28
  A 0.35 0.35 0.0 0 1 898.53 550.91
  L 877.38 566.25
  A 0.35 0.35 0.0 0 0 877.25 566.65
  L 885.34 591.49
  A 0.35 0.35 0.0 0 1 884.80 591.88
  L 863.68 576.51
  A 0.35 0.35 0.0 0 0 863.26 576.51
  L 842.14 591.88
  A 0.35 0.35 0.0 0 1 841.60 591.49
  L 849.69 566.65
  A 0.35 0.35 0.0 0 0 849.56 566.25
  L 828.41 550.91
  A 0.35 0.35 0.0 0 1 828.62 550.28
  L 854.75 550.29
  A 0.35 0.35 0.0 0 0 855.08 550.05
  L 863.14 525.20
  A 0.35 0.35 0.0 0 1 863.80 525.20
  L 871.86 550.05
  A 0.35 0.35 0.0 0 0 872.19 550.29
  Z"
/>
<path fill="#231f20" d="
  M 563.65 633.10
  L 589.92 633.04
  A 0.35 0.35 0.0 0 1 590.12 633.67
  L 568.83 649.06
  A 0.35 0.35 0.0 0 0 568.70 649.46
  L 576.88 674.42
  A 0.35 0.35 0.0 0 1 576.34 674.81
  L 555.13 659.32
  A 0.35 0.35 0.0 0 0 554.71 659.32
  L 533.50 674.81
  A 0.35 0.35 0.0 0 1 532.96 674.42
  L 541.14 649.46
  A 0.35 0.35 0.0 0 0 541.01 649.06
  L 519.72 633.67
  A 0.35 0.35 0.0 0 1 519.92 633.04
  L 546.19 633.10
  A 0.35 0.35 0.0 0 0 546.53 632.86
  L 554.59 607.85
  A 0.35 0.35 0.0 0 1 555.25 607.85
  L 563.31 632.86
  A 0.35 0.35 0.0 0 0 563.65 633.10
  Z"
/>
<path fill="#231f20" d="
  M 789.36 633.07
  L 815.61 633.05
  A 0.34 0.34 0.0 0 1 815.81 633.67
  L 794.56 649.08
  A 0.34 0.34 0.0 0 0 794.44 649.46
  L 802.57 674.42
  A 0.34 0.34 0.0 0 1 802.04 674.80
  L 780.82 659.36
  A 0.34 0.34 0.0 0 0 780.42 659.36
  L 759.20 674.80
  A 0.34 0.34 0.0 0 1 758.67 674.42
  L 766.80 649.46
  A 0.34 0.34 0.0 0 0 766.68 649.08
  L 745.43 633.67
  A 0.34 0.34 0.0 0 1 745.63 633.05
  L 771.88 633.07
  A 0.34 0.34 0.0 0 0 772.20 632.83
  L 780.30 607.87
  A 0.34 0.34 0.0 0 1 780.94 607.87
  L 789.04 632.83
  A 0.34 0.34 0.0 0 0 789.36 633.07
  Z"
/>
<path fill="#231f20" d="
  M 676.51 663.08
  L 702.74 663.05
  A 0.35 0.35 0.0 0 1 702.95 663.68
  L 681.71 679.07
  A 0.35 0.35 0.0 0 0 681.58 679.46
  L 689.72 704.40
  A 0.35 0.35 0.0 0 1 689.18 704.79
  L 667.98 689.35
  A 0.35 0.35 0.0 0 0 667.56 689.35
  L 646.36 704.79
  A 0.35 0.35 0.0 0 1 645.82 704.40
  L 653.96 679.46
  A 0.35 0.35 0.0 0 0 653.83 679.07
  L 632.59 663.68
  A 0.35 0.35 0.0 0 1 632.80 663.05
  L 659.03 663.08
  A 0.35 0.35 0.0 0 0 659.36 662.84
  L 667.44 637.88
  A 0.35 0.35 0.0 0 1 668.10 637.88
  L 676.18 662.84
  A 0.35 0.35 0.0 0 0 676.51 663.08
  Z"
/>
<path fill="#000000" d="
  M 1812.79 696.16
  A 0.52 0.52 0.0 0 1 1812.42 696.79
  L 1797.19 700.94
  A 0.57 0.57 0.0 0 1 1796.50 700.55
  Q 1794.45 693.48 1791.10 687.93
  C 1780.30 670.00 1751.10 669.57 1734.54 677.46
  C 1710.19 689.06 1705.88 722.10 1712.09 745.39
  C 1716.91 763.48 1730.06 773.99 1748.37 777.38
  C 1765.04 780.46 1782.43 775.44 1796.11 765.62
  A 2.99 2.97 72.3 0 0 1797.36 763.19
  L 1797.36 740.29
  A 0.40 0.40 0.0 0 0 1796.96 739.89
  L 1758.71 739.89
  A 0.56 0.55 -0.0 0 1 1758.15 739.34
  L 1758.15 724.72
  A 0.59 0.59 0.0 0 1 1758.74 724.13
  L 1814.26 724.13
  A 0.58 0.58 0.0 0 1 1814.84 724.71
  L 1814.84 772.79
  A 1.39 1.38 -23.9 0 1 1814.47 773.73
  Q 1813.03 775.28 1804.86 780.57
  C 1782.51 795.04 1754.10 798.76 1729.23 788.54
  C 1707.40 779.56 1695.11 761.05 1691.99 738.30
  C 1688.51 712.89 1695.81 682.86 1717.93 667.71
  C 1731.96 658.10 1750.19 655.37 1767.37 657.14
  C 1779.13 658.35 1790.97 662.73 1799.57 670.95
  C 1806.20 677.29 1810.44 686.98 1812.79 696.16
  Z"
/>
<path fill="#000000" d="
  M 1373.41 720.59
  Q 1377.23 726.35 1401.30 762.54
  A 0.26 0.26 0.0 0 0 1401.77 762.40
  L 1401.77 658.82
  A 0.38 0.38 0.0 0 1 1402.15 658.44
  L 1418.58 658.44
  A 0.48 0.48 0.0 0 1 1419.06 658.92
  L 1419.06 792.03
  A 0.38 0.38 0.0 0 1 1418.68 792.41
  L 1401.22 792.41
  A 1.16 1.16 0.0 0 1 1400.26 791.89
  Q 1360.95 732.90 1359.19 730.25
  Q 1355.37 724.50 1331.30 688.31
  A 0.26 0.26 0.0 0 0 1330.83 688.45
  L 1330.83 792.03
  A 0.38 0.38 0.0 0 1 1330.45 792.41
  L 1314.02 792.41
  A 0.48 0.48 0.0 0 1 1313.54 791.93
  L 1313.54 658.82
  A 0.38 0.38 0.0 0 1 1313.92 658.44
  L 1331.38 658.44
  A 1.16 1.16 0.0 0 1 1332.34 658.95
  Q 1371.65 717.94 1373.41 720.59
  Z"
/>
<rect fill="#000000" x="2366.11" y="658.45" width="16.62" height="17.52" rx="0.41"/>
<path fill="#000000" d="
  M 2713.96 658.95
  L 2713.96 673.72
  A 0.49 0.49 0.0 0 1 2713.47 674.21
  L 2635.67 674.21
  A 0.49 0.49 0.0 0 0 2635.18 674.70
  L 2635.18 714.89
  A 0.49 0.49 0.0 0 0 2635.67 715.38
  L 2708.42 715.38
  A 0.49 0.49 0.0 0 1 2708.91 715.87
  L 2708.91 730.65
  A 0.49 0.49 0.0 0 1 2708.42 731.14
  L 2635.67 731.14
  A 0.49 0.49 0.0 0 0 2635.18 731.63
  L 2635.18 776.18
  A 0.49 0.49 0.0 0 0 2635.67 776.67
  L 2716.56 776.67
  A 0.49 0.49 0.0 0 1 2717.05 777.16
  L 2717.05 791.93
  A 0.49 0.49 0.0 0 1 2716.56 792.42
  L 2617.72 792.42
  A 0.49 0.49 0.0 0 1 2617.23 791.93
  L 2617.23 658.95
  A 0.49 0.49 0.0 0 1 2617.72 658.46
  L 2713.47 658.46
  A 0.49 0.49 0.0 0 1 2713.96 658.95
  Z"
/>
<path fill="#000000" d="
  M 2793.97 777.37
  C 2808.91 777.38 2822.24 772.92 2826.44 756.92
  Q 2828.60 748.71 2828.63 738.49
  Q 2828.71 714.32 2828.67 658.86
  A 0.39 0.39 0.0 0 1 2829.06 658.47
  L 2846.13 658.47
  A 0.51 0.50 -0.0 0 1 2846.64 658.97
  Q 2846.63 727.94 2846.63 735.25
  Q 2846.63 749.55 2844.11 760.94
  C 2839.40 782.26 2821.97 792.65 2801.25 794.02
  Q 2798.61 794.19 2793.97 794.19
  Q 2789.32 794.19 2786.69 794.01
  C 2765.96 792.64 2748.54 782.24 2743.84 760.92
  Q 2741.32 749.53 2741.33 735.23
  Q 2741.33 727.92 2741.35 658.95
  A 0.51 0.50 0.0 0 1 2741.86 658.45
  L 2758.93 658.46
  A 0.39 0.39 0.0 0 1 2759.32 658.85
  Q 2759.26 714.31 2759.33 738.48
  Q 2759.35 748.70 2761.51 756.91
  C 2765.70 772.91 2779.03 777.37 2793.97 777.37
  Z"
/>
<path fill="#000000" d="
  M 1633.32 695.25
  L 1644.16 695.25
  A 0.60 0.60 0.0 0 0 1644.76 694.65
  L 1644.76 671.67
  A 1.11 1.09 -15.3 0 1 1645.31 670.72
  L 1660.77 661.80
  A 0.40 0.40 0.0 0 1 1661.37 662.15
  L 1661.37 694.77
  A 0.47 0.47 0.0 0 0 1661.84 695.24
  L 1677.34 695.24
  A 0.46 0.46 0.0 0 1 1677.80 695.70
  L 1677.80 707.93
  A 0.45 0.44 -90.0 0 1 1677.36 708.38
  L 1661.75 708.38
  A 0.37 0.36 -0.0 0 0 1661.38 708.74
  Q 1661.31 754.65 1661.43 769.48
  C 1661.51 779.90 1670.24 778.20 1677.33 778.18
  A 0.58 0.57 -4.0 0 1 1677.90 778.67
  L 1680.10 792.19
  A 0.68 0.67 79.5 0 1 1679.57 792.97
  C 1668.22 795.23 1649.10 796.21 1645.93 780.83
  Q 1644.88 775.75 1644.82 766.25
  Q 1644.67 743.11 1644.80 708.79
  A 0.42 0.42 0.0 0 0 1644.38 708.37
  L 1633.12 708.37
  A 0.41 0.41 0.0 0 1 1632.71 707.96
  L 1632.71 695.86
  A 0.61 0.61 0.0 0 1 1633.32 695.25
  Z"
/>
<path fill="#000000" d="
  M 2305.23 695.84
  A 0.61 0.61 0.0 0 1 2305.84 695.23
  L 2316.68 695.23
  A 0.60 0.60 0.0 0 0 2317.28 694.63
  L 2317.28 671.63
  A 1.11 1.10 -15.3 0 1 2317.83 670.68
  L 2333.30 661.75
  A 0.40 0.40 0.0 0 1 2333.90 662.10
  L 2333.91 694.74
  A 0.47 0.47 0.0 0 0 2334.38 695.21
  L 2349.89 695.21
  A 0.46 0.46 0.0 0 1 2350.35 695.67
  L 2350.35 707.91
  A 0.45 0.44 90.0 0 1 2349.91 708.36
  L 2334.29 708.36
  A 0.37 0.36 -0.0 0 0 2333.92 708.72
  Q 2333.86 754.67 2333.99 769.51
  C 2334.07 779.93 2342.80 778.23 2349.90 778.21
  A 0.58 0.57 -4.0 0 1 2350.47 778.70
  L 2352.68 792.23
  A 0.68 0.68 0.0 0 1 2352.14 793.01
  C 2340.79 795.27 2321.65 796.26 2318.48 780.87
  Q 2317.42 775.79 2317.36 766.28
  Q 2317.21 743.12 2317.33 708.78
  A 0.42 0.42 0.0 0 0 2316.91 708.36
  L 2305.64 708.36
  A 0.41 0.41 0.0 0 1 2305.23 707.95
  L 2305.23 695.84
  Z"
/>
<path fill="#000000" d="
  M 1529.55 747.45
  A 0.35 0.34 -88.2 0 1 1529.21 747.78
  L 1457.81 747.78
  A 0.37 0.37 0.0 0 0 1457.44 748.17
  C 1458.38 766.88 1469.02 782.46 1489.69 780.74
  C 1500.94 779.81 1508.48 770.85 1511.52 760.71
  A 0.97 0.97 0.0 0 1 1512.60 760.03
  L 1528.41 762.45
  A 0.58 0.57 11.8 0 1 1528.88 763.16
  C 1522.31 787.41 1502.06 796.76 1478.26 793.76
  C 1455.15 790.86 1441.91 773.40 1440.47 751.00
  C 1439.34 733.36 1442.32 714.99 1456.56 703.19
  Q 1466.37 695.06 1479.47 693.69
  C 1488.19 692.79 1497.73 693.73 1505.69 697.78
  C 1524.67 707.44 1530.55 727.39 1529.55 747.45
  Z
  M 1458.94 734.59
  L 1511.76 734.69
  A 0.20 0.20 0.0 0 0 1511.96 734.49
  L 1511.96 733.46
  A 26.69 26.61 -89.9 0 0 1485.39 706.72
  A 26.69 26.61 -89.9 0 0 1458.74 733.36
  L 1458.74 734.39
  A 0.20 0.20 0.0 0 0 1458.94 734.59
  Z"
/>
<path fill="#000000" d="
  M 1922.73 747.46
  A 0.35 0.34 -88.2 0 1 1922.39 747.79
  L 1850.99 747.77
  A 0.37 0.37 0.0 0 0 1850.62 748.16
  C 1851.56 766.87 1862.19 782.45 1882.86 780.74
  C 1894.11 779.81 1901.66 770.85 1904.70 760.71
  A 0.97 0.97 0.0 0 1 1905.78 760.03
  L 1921.59 762.46
  A 0.58 0.57 11.8 0 1 1922.06 763.17
  C 1915.48 787.42 1895.23 796.76 1871.43 793.76
  C 1848.32 790.85 1835.09 773.39 1833.65 750.99
  C 1832.53 733.35 1835.51 714.98 1849.75 703.19
  Q 1859.56 695.06 1872.66 693.69
  C 1881.38 692.79 1890.92 693.74 1898.88 697.79
  C 1917.86 707.45 1923.73 727.40 1922.73 747.46
  Z
  M 1852.09 734.59
  L 1904.95 734.69
  A 0.20 0.20 0.0 0 0 1905.15 734.49
  L 1905.15 733.49
  A 26.72 26.63 -89.9 0 0 1878.56 706.72
  A 26.72 26.63 -89.9 0 0 1851.89 733.39
  L 1851.89 734.39
  A 0.20 0.20 0.0 0 0 1852.09 734.59
  Z"
/>
<path fill="#000000" d="
  M 1957.15 707.28
  A 0.35 0.35 0.0 0 0 1957.76 707.52
  Q 1959.65 705.42 1961.02 703.97
  C 1970.95 693.46 1986.50 691.29 1999.99 695.08
  Q 2016.80 699.81 2020.07 716.98
  Q 2020.90 721.36 2021.02 729.77
  Q 2021.15 740.01 2021.08 791.96
  A 0.47 0.47 0.0 0 1 2020.61 792.43
  L 2004.91 792.43
  A 0.48 0.48 0.0 0 1 2004.43 791.95
  Q 2004.48 751.70 2004.42 731.26
  C 2004.38 719.36 2000.67 709.40 1987.54 707.85
  C 1976.32 706.53 1964.45 711.89 1960.94 723.17
  C 1959.41 728.06 1958.89 732.99 1958.90 738.36
  Q 1958.91 751.58 1958.90 792.04
  A 0.39 0.39 0.0 0 1 1958.51 792.43
  L 1942.88 792.43
  A 0.62 0.61 -90.0 0 1 1942.27 791.81
  L 1942.28 695.66
  A 0.43 0.43 0.0 0 1 1942.71 695.23
  L 1956.63 695.23
  A 0.52 0.52 0.0 0 1 1957.15 695.75
  L 1957.15 707.28
  Z"
/>
<path fill="#000000" d="
  M 2129.40 747.45
  A 0.35 0.34 -88.2 0 1 2129.06 747.78
  L 2057.66 747.78
  A 0.37 0.37 0.0 0 0 2057.29 748.17
  C 2058.23 766.88 2068.87 782.46 2089.54 780.74
  C 2100.79 779.81 2108.33 770.85 2111.37 760.71
  A 0.97 0.97 0.0 0 1 2112.45 760.03
  L 2128.26 762.45
  A 0.58 0.57 11.8 0 1 2128.73 763.16
  C 2122.16 787.41 2101.91 796.76 2078.11 793.76
  C 2055.00 790.86 2041.76 773.40 2040.32 751.00
  C 2039.19 733.36 2042.17 714.99 2056.41 703.19
  Q 2066.22 695.06 2079.32 693.69
  C 2088.04 692.79 2097.58 693.73 2105.54 697.78
  C 2124.52 707.44 2130.40 727.39 2129.40 747.45
  Z
  M 2058.82 734.59
  L 2111.54 734.69
  A 0.21 0.21 0.0 0 0 2111.75 734.48
  L 2111.75 733.46
  A 26.65 26.26 -89.9 0 0 2085.53 706.76
  L 2084.91 706.76
  A 26.65 26.26 -89.9 0 0 2058.61 733.36
  L 2058.61 734.38
  A 0.21 0.21 0.0 0 0 2058.82 734.59
  Z"
/>
<path fill="#000000" d="
  M 2163.61 695.83
  L 2163.61 707.93
  A 0.42 0.41 68.6 0 0 2164.31 708.24
  C 2165.17 707.44 2165.47 706.28 2166.29 705.04
  C 2170.70 698.34 2175.53 693.70 2183.74 693.47
  Q 2192.92 693.21 2201.04 698.07
  A 0.55 0.54 25.2 0 1 2201.28 698.72
  L 2196.15 713.02
  A 0.70 0.69 17.9 0 1 2195.30 713.45
  C 2193.87 713.02 2192.18 711.88 2190.45 711.36
  C 2178.41 707.78 2170.02 713.64 2167.23 725.17
  Q 2165.39 732.73 2165.39 739.00
  Q 2165.39 771.66 2165.37 792.05
  A 0.37 0.37 0.0 0 1 2165.00 792.42
  L 2149.13 792.42
  A 0.42 0.42 0.0 0 1 2148.71 792.00
  L 2148.71 695.64
  A 0.42 0.41 -90.0 0 1 2149.12 695.22
  L 2163.00 695.22
  A 0.61 0.61 0.0 0 1 2163.61 695.83
  Z"
/>
<path fill="#000000" d="
  M 2273.42 781.05
  C 2271.38 782.52 2267.92 785.51 2265.21 787.06
  Q 2246.68 797.67 2226.14 792.79
  C 2212.18 789.47 2203.68 777.08 2205.74 762.81
  C 2207.82 748.43 2219.48 740.64 2233.16 738.14
  C 2242.78 736.39 2259.64 735.21 2272.31 731.19
  A 0.72 0.72 0.0 0 0 2272.82 730.53
  C 2273.34 719.52 2271.16 711.27 2259.14 708.64
  Q 2249.01 706.43 2238.86 708.86
  C 2230.60 710.85 2226.80 717.43 2224.84 725.19
  A 0.87 0.86 -78.7 0 1 2223.87 725.84
  L 2208.93 723.55
  A 0.67 0.66 -80.1 0 1 2208.38 722.76
  Q 2209.66 716.38 2212.74 710.71
  C 2219.23 698.73 2233.53 694.16 2246.50 693.58
  C 2266.29 692.70 2289.29 695.79 2289.38 721.53
  Q 2289.53 762.60 2289.76 769.01
  C 2290.09 777.99 2290.64 784.85 2294.53 791.74
  A 0.45 0.45 0.0 0 1 2294.14 792.42
  L 2277.53 792.42
  A 0.76 0.74 82.4 0 1 2276.81 791.86
  L 2273.91 781.23
  A 0.32 0.32 0.0 0 0 2273.42 781.05
  Z
  M 2272.41 744.70
  Q 2264.28 747.52 2254.77 749.00
  Q 2251.79 749.46 2236.24 752.15
  C 2223.52 754.36 2217.88 769.50 2229.18 777.49
  Q 2232.33 779.72 2236.88 780.43
  C 2250.64 782.59 2266.01 777.20 2271.09 763.48
  C 2272.93 758.51 2272.93 750.65 2272.83 744.99
  A 0.32 0.32 0.0 0 0 2272.41 744.70
  Z"
/>
<path fill="#000000" d="
  M 2447.27 693.47
  C 2460.39 693.45 2471.90 697.53 2480.86 707.08
  C 2490.22 717.04 2492.75 730.59 2492.78 743.75
  C 2492.80 756.91 2490.33 770.48 2481.01 780.48
  C 2472.09 790.06 2460.59 794.19 2447.48 794.22
  C 2434.36 794.25 2422.85 790.16 2413.89 780.62
  C 2404.53 770.65 2402.00 757.10 2401.97 743.94
  C 2401.94 730.78 2404.42 717.22 2413.74 707.21
  C 2422.66 697.63 2434.16 693.50 2447.27 693.47
  Z
  M 2419.03 744.24
  Q 2419.02 747.97 2419.51 752.74
  C 2421.07 768.14 2430.89 780.83 2447.33 780.84
  C 2463.76 780.86 2473.60 768.18 2475.19 752.79
  Q 2475.68 748.01 2475.69 744.28
  Q 2475.69 740.56 2475.20 735.78
  C 2473.64 720.39 2463.82 707.69 2447.39 707.68
  C 2430.95 707.67 2421.11 720.34 2419.52 735.73
  Q 2419.03 740.51 2419.03 744.24
  Z"
/>
<path fill="#000000" d="
  M 2526.96 707.52
  Q 2528.85 705.42 2530.22 703.97
  C 2540.14 693.46 2555.69 691.28 2569.18 695.07
  Q 2585.99 699.80 2589.26 716.97
  Q 2590.09 721.35 2590.21 729.75
  Q 2590.34 739.99 2590.28 791.94
  A 0.47 0.47 0.0 0 1 2589.81 792.41
  L 2574.11 792.41
  A 0.48 0.48 0.0 0 1 2573.63 791.93
  Q 2573.68 751.68 2573.61 731.25
  C 2573.57 719.35 2569.86 709.39 2556.73 707.84
  C 2545.51 706.52 2533.65 711.89 2530.14 723.16
  C 2528.61 728.05 2528.09 732.98 2528.10 738.35
  Q 2528.11 751.57 2528.11 792.03
  A 0.39 0.39 0.0 0 1 2527.72 792.42
  L 2512.09 792.42
  A 0.62 0.61 -90.0 0 1 2511.48 791.80
  L 2511.48 695.66
  A 0.43 0.43 0.0 0 1 2511.91 695.23
  L 2525.83 695.23
  A 0.52 0.52 0.0 0 1 2526.35 695.75
  L 2526.35 707.28
  A 0.35 0.35 0.0 0 0 2526.96 707.52
  Z"
/>
<path fill="#000000" d="
  M 1573.13 742.03
  L 1540.97 695.71
  A 0.30 0.30 0.0 0 1 1541.21 695.24
  L 1561.15 695.24
  A 0.30 0.30 0.0 0 1 1561.40 695.37
  L 1582.81 727.87
  A 0.30 0.30 0.0 0 0 1583.30 727.88
  L 1606.16 695.36
  A 0.30 0.30 0.0 0 1 1606.41 695.23
  L 1625.69 695.23
  A 0.30 0.30 0.0 0 1 1625.94 695.70
  L 1593.70 741.57
  A 0.30 0.30 0.0 0 0 1593.70 741.91
  L 1628.43 791.95
  A 0.30 0.30 0.0 0 1 1628.19 792.42
  L 1608.44 792.42
  A 0.30 0.30 0.0 0 1 1608.19 792.28
  L 1584.15 755.78
  A 0.30 0.30 0.0 0 0 1583.66 755.77
  L 1557.99 792.28
  A 0.30 0.30 0.0 0 1 1557.74 792.41
  L 1538.53 792.41
  A 0.30 0.30 0.0 0 1 1538.28 791.94
  L 1573.13 742.37
  A 0.30 0.30 0.0 0 0 1573.13 742.03
  Z"
/>
<rect fill="#000000" x="2366.11" y="695.24" width="16.62" height="97.20" rx="0.41"/>
</svg>
