<?xml version="1.0" encoding="UTF-8" standalone="no"?>
<!DOCTYPE svg PUBLIC "-//W3C//DTD SVG 1.1//EN" "http://www.w3.org/Graphics/SVG/1.1/DTD/svg11.dtd">
<svg xmlns="http://www.w3.org/2000/svg" version="1.1" viewBox="0.00 0.00 428.00 562.00">
<path fill="#000000" d="
  M 352.76 79.58
  Q 381.26 108.05 406.35 137.93
  C 407.89 139.76 407.89 141.69 408.08 144.04
  Q 414.25 221.37 408.03 298.75
  Q 407.79 301.68 406.49 303.23
  Q 355.75 363.58 295.22 414.71
  C 293.69 416.01 292.43 416.70 290.44 416.85
  Q 251.19 419.79 230.75 419.80
  Q 200.77 419.82 183.86 419.54
  A 1.44 1.44 0.0 0 1 182.59 418.71
  C 179.74 412.60 176.19 403.80 171.57 397.97
  Q 162.96 387.12 148.95 383.59
  C 143.23 382.15 135.26 382.60 130.01 382.03
  C 109.71 379.82 90.92 370.86 76.32 356.28
  C 61.73 341.69 52.75 322.92 50.52 302.62
  C 49.95 297.37 50.39 289.40 48.94 283.68
  Q 45.40 269.67 34.54 261.07
  C 28.71 256.46 19.91 252.91 13.79 250.07
  A 1.44 1.44 0.0 0 1 12.96 248.80
  Q 12.67 231.89 12.66 201.91
  Q 12.65 181.47 15.55 142.22
  C 15.70 140.23 16.39 138.97 17.69 137.44
  Q 68.76 76.86 129.07 26.06
  Q 130.61 24.76 133.54 24.52
  Q 210.92 18.23 288.25 24.32
  C 290.60 24.51 292.53 24.51 294.37 26.05
  Q 324.27 51.11 352.76 79.58
  Z
  M 110.77 321.92
  C 117.92 329.05 128.24 333.66 138.75 333.83
  C 144.14 333.91 149.96 334.15 155.09 335.10
  Q 190.10 341.61 211.97 370.35
  A 2.49 2.47 -18.7 0 0 213.97 371.33
  Q 241.77 371.12 270.39 369.34
  Q 273.38 369.15 275.78 367.04
  Q 321.37 326.82 357.51 285.24
  C 358.99 283.53 360.22 282.40 360.39 280.02
  Q 364.60 220.42 360.26 160.83
  A 5.34 5.32 -66.1 0 0 359.17 157.98
  Q 357.59 155.93 355.46 153.55
  Q 336.19 132.12 318.16 114.12
  Q 300.14 96.13 278.66 76.90
  Q 276.28 74.78 274.23 73.20
  A 5.34 5.32 -24.0 0 0 271.37 72.12
  Q 211.78 67.89 152.18 72.22
  C 149.80 72.39 148.68 73.62 146.97 75.11
  Q 105.46 111.33 65.33 156.99
  Q 63.22 159.40 63.04 162.39
  Q 61.31 191.01 61.16 218.81
  A 2.49 2.47 -71.4 0 0 62.14 220.81
  Q 90.92 242.62 97.50 277.62
  C 98.46 282.75 98.71 288.57 98.80 293.96
  C 98.99 304.47 103.62 314.78 110.77 321.92
  Z"
/>
<path fill="#000000" d="
  M 40.71 363.50
  Q 53.53 363.52 66.25 365.63
  Q 66.42 365.66 66.54 365.78
  Q 66.67 365.90 66.69 366.07
  Q 68.77 378.80 68.75 391.62
  Q 68.73 404.44 66.63 417.16
  Q 66.60 417.33 66.48 417.45
  Q 66.35 417.57 66.18 417.60
  Q 53.46 419.67 40.64 419.65
  Q 27.82 419.64 15.10 417.53
  Q 14.93 417.50 14.81 417.38
  Q 14.69 417.26 14.66 417.09
  Q 12.58 404.36 12.60 391.54
  Q 12.62 378.72 14.73 366.00
  Q 14.75 365.83 14.88 365.71
  Q 15.00 365.59 15.17 365.56
  Q 27.89 363.49 40.71 363.50
  Z"
/>
<path fill="#000000" d="
  M 41.80 526.82
  L 41.80 457.37
  A 0.64 0.64 0.0 0 1 42.44 456.73
  L 55.45 456.73
  A 0.64 0.64 0.0 0 1 56.09 457.37
  L 56.09 513.74
  A 0.64 0.64 0.0 0 0 56.73 514.38
  L 91.39 514.38
  A 0.64 0.64 0.0 0 1 92.03 515.02
  L 92.03 526.82
  A 0.64 0.64 0.0 0 1 91.39 527.46
  L 42.44 527.46
  A 0.64 0.64 0.0 0 1 41.80 526.82
  Z"
/>
<path fill="#000000" d="
  M 132.69 521.95
  A 0.46 0.46 0.0 0 0 131.88 521.74
  C 125.20 529.81 109.77 530.51 102.30 523.29
  Q 97.08 518.23 97.90 510.24
  C 98.83 501.27 105.39 497.77 113.54 496.61
  Q 121.33 495.50 128.88 496.06
  A 2.95 2.94 77.1 0 0 131.65 491.65
  L 130.80 490.17
  A 8.44 8.43 78.0 0 0 124.38 486.00
  Q 117.35 485.25 113.19 490.09
  A 1.44 1.43 20.0 0 1 112.09 490.60
  L 100.39 490.60
  A 0.98 0.97 -83.0 0 1 99.45 489.39
  C 102.72 476.34 116.90 472.39 128.67 474.49
  C 142.26 476.92 145.66 488.61 145.56 500.76
  Q 145.43 515.86 145.60 526.52
  A 0.91 0.90 -0.6 0 1 144.69 527.44
  L 133.48 527.44
  A 0.83 0.83 0.0 0 1 132.66 526.50
  Q 133.03 523.89 132.69 521.95
  Z
  M 131.72 505.36
  Q 124.40 504.72 117.37 505.64
  Q 111.05 506.47 111.73 512.26
  C 111.96 514.16 113.58 515.63 115.24 516.25
  C 122.84 519.11 131.43 514.83 132.46 506.28
  A 0.83 0.82 -83.9 0 0 131.72 505.36
  Z"
/>
<path fill="#000000" d="
  M 192.76 522.17
  Q 184.46 529.84 172.42 527.75
  C 156.06 524.92 151.78 507.52 154.88 493.16
  Q 157.48 481.15 167.46 476.23
  C 174.56 472.74 186.57 472.93 192.24 479.21
  A 1.12 1.11 -66.1 0 0 194.18 478.46
  L 194.18 475.89
  A 1.06 1.05 -0.0 0 1 195.24 474.84
  L 206.73 474.84
  A 0.65 0.64 90.0 0 1 207.37 475.49
  Q 207.33 492.95 207.36 522.50
  C 207.38 537.63 201.56 550.21 185.02 551.74
  C 172.17 552.93 159.09 547.75 156.46 533.74
  A 0.69 0.69 0.0 0 1 157.14 532.92
  L 169.64 532.92
  A 1.18 1.18 0.0 0 1 170.67 533.52
  Q 172.36 536.46 174.32 537.44
  C 180.34 540.46 189.69 539.81 192.03 532.31
  Q 193.69 527.00 193.42 522.43
  A 0.39 0.39 0.0 0 0 192.76 522.17
  Z
  M 193.2655 498.5756
  A 11.50 11.50 0.0 0 0 182.1324 486.7201
  L 180.0335 486.6541
  A 11.50 11.50 0.0 0 0 168.1779 497.7872
  L 167.9945 503.6244
  A 11.50 11.50 0.0 0 0 179.1276 515.4799
  L 181.2265 515.5459
  A 11.50 11.50 0.0 0 0 193.0821 504.4128
  L 193.2655 498.5756
  Z"
/>
<path fill="#000000" d="
  M 268.6122 503.5753
  A 23.88 23.88 0.0 0 1 245.2802 527.9909
  L 240.6813 528.0953
  A 23.88 23.88 0.0 0 1 216.2657 504.7632
  L 216.1278 498.6847
  A 23.88 23.88 0.0 0 1 239.4598 474.2691
  L 244.0587 474.1647
  A 23.88 23.88 0.0 0 1 268.4743 497.4968
  L 268.6122 503.5753
  Z
  M 254.7154 498.2918
  A 11.38 11.38 0.0 0 0 243.2365 487.0116
  L 241.1766 487.0295
  A 11.38 11.38 0.0 0 0 229.8963 498.5084
  L 229.9446 504.0482
  A 11.38 11.38 0.0 0 0 241.4235 515.3284
  L 243.4834 515.3105
  A 11.38 11.38 0.0 0 0 254.7637 503.8316
  L 254.7154 498.2918
  Z"
/>
<path fill="#000000" d="
  M 327.9898 503.2345
  A 23.88 23.88 0.0 0 1 304.9577 527.9333
  L 300.3605 528.0939
  A 23.88 23.88 0.0 0 1 275.6617 505.0618
  L 275.4502 499.0055
  A 23.88 23.88 0.0 0 1 298.4823 474.3067
  L 303.0795 474.1461
  A 23.88 23.88 0.0 0 1 327.7783 497.1782
  L 327.9898 503.2345
  Z
  M 314.1437 498.4886
  A 11.38 11.38 0.0 0 0 302.8634 487.0097
  L 300.7635 486.9914
  A 11.38 11.38 0.0 0 0 289.2846 498.2716
  L 289.2363 503.8114
  A 11.38 11.38 0.0 0 0 300.5166 515.2903
  L 302.6165 515.3086
  A 11.38 11.38 0.0 0 0 314.0954 504.0284
  L 314.1437 498.4886
  Z"
/>
<path fill="#000000" d="
  M 350.58 526.90
  A 0.55 0.55 0.0 0 1 350.03 527.45
  L 337.30 527.45
  A 0.80 0.79 -90.0 0 1 336.51 526.65
  L 336.51 475.22
  A 0.36 0.36 0.0 0 1 336.87 474.86
  L 348.76 474.86
  A 1.17 1.17 0.0 0 1 349.93 476.03
  L 349.93 479.26
  A 0.92 0.92 0.0 0 0 351.39 480.01
  C 352.39 479.29 353.53 477.68 354.71 477.06
  Q 363.61 472.35 372.73 474.54
  C 382.15 476.81 386.14 486.99 386.24 496.01
  Q 386.39 509.76 386.30 526.78
  A 0.69 0.69 0.0 0 1 385.61 527.47
  L 373.29 527.47
  A 0.91 0.90 90.0 0 1 372.39 526.56
  Q 372.43 504.63 372.31 497.99
  C 372.19 491.62 368.93 485.89 361.73 486.60
  C 353.75 487.38 350.63 493.91 350.57 501.32
  Q 350.48 513.35 350.58 526.90
  Z"
/>
</svg>
