<?xml version="1.0" encoding="UTF-8" standalone="no"?>
<!DOCTYPE svg PUBLIC "-//W3C//DTD SVG 1.1//EN" "http://www.w3.org/Graphics/SVG/1.1/DTD/svg11.dtd">
<svg xmlns="http://www.w3.org/2000/svg" version="1.1" viewBox="0.00 0.00 512.00 512.00">
<path fill="#000000" d="
  M 256.19 23.62
  Q 292.58 23.62 293.48 23.63
  A 0.65 0.65 0.0 0 1 294.13 24.28
  L 294.13 57.79
  A 0.33 0.33 0.0 0 0 294.46 58.12
  L 340.58 58.12
  A 0.30 0.30 0.0 0 0 340.88 57.82
  L 340.88 23.92
  A 0.30 0.30 0.0 0 1 341.18 23.62
  L 410.42 23.62
  A 0.46 0.45 0.0 0 1 410.88 24.07
  L 410.88 132.48
  A 0.37 0.36 -89.9 0 1 410.51 132.85
  Q 401.46 132.87 256.20 132.87
  Q 110.93 132.88 101.88 132.86
  A 0.37 0.36 89.9 0 1 101.51 132.50
  L 101.50 24.09
  A 0.46 0.45 -0.0 0 1 101.96 23.64
  L 171.20 23.63
  A 0.30 0.30 0.0 0 1 171.50 23.93
  L 171.51 57.83
  A 0.30 0.30 0.0 0 0 171.81 58.13
  L 217.93 58.12
  A 0.33 0.33 0.0 0 0 218.26 57.79
  L 218.25 24.28
  A 0.65 0.65 0.0 0 1 218.90 23.63
  Q 219.80 23.63 256.19 23.62
  Z"
/>
<rect fill="#000000" x="142.37" y="219.13" width="227.64" height="86.36" rx="0.42"/>
<rect fill="#000000" x="89.76" y="386.00" width="332.86" height="103.50" rx="0.38"/>
</svg>
