<?xml version="1.0" encoding="UTF-8" standalone="no"?>
<!DOCTYPE svg PUBLIC "-//W3C//DTD SVG 1.1//EN" "http://www.w3.org/Graphics/SVG/1.1/DTD/svg11.dtd">
<svg xmlns="http://www.w3.org/2000/svg" version="1.1" viewBox="0.00 0.00 400.00 400.00">
<rect fill="#000000" x="122.92" y="110.30" width="38.18" height="180.10" rx="0.33"/>
<path fill="#000000" d="
  M 287.15 289.76
  A 0.60 0.59 -0.0 0 1 286.55 290.35
  Q 273.61 290.35 263.74 290.39
  C 254.72 290.42 249.47 286.76 242.63 280.11
  Q 225.49 263.45 175.20 215.24
  Q 170.81 211.03 169.70 208.68
  C 166.48 201.89 167.79 194.19 173.13 188.88
  Q 215.55 146.59 244.77 117.52
  Q 251.95 110.38 262.25 110.35
  Q 276.67 110.32 286.95 110.35
  A 0.27 0.27 0.0 0 1 287.22 110.62
  L 287.22 146.39
  A 0.67 0.67 0.0 0 1 286.54 147.06
  Q 271.59 146.94 271.50 146.94
  Q 266.53 146.86 263.42 149.90
  Q 242.55 170.33 212.67 199.58
  A 0.21 0.21 0.0 0 0 212.67 199.88
  Q 257.35 243.30 265.75 251.49
  Q 266.85 252.56 270.72 253.72
  A 0.51 0.44 -30.8 0 0 270.89 253.75
  L 286.70 253.75
  A 0.45 0.44 0.0 0 1 287.15 254.19
  L 287.15 289.76
  Z"
/>
</svg>
