<?xml version="1.0" encoding="UTF-8" standalone="no"?>
<!DOCTYPE svg PUBLIC "-//W3C//DTD SVG 1.1//EN" "http://www.w3.org/Graphics/SVG/1.1/DTD/svg11.dtd">
<svg xmlns="http://www.w3.org/2000/svg" version="1.1" viewBox="0.00 0.00 374.00 131.00">
<path fill="#2b2b2b" d="
  M 104.53 65.70
  A 47.93 47.93 0.0 0 1 56.60 113.63
  A 47.93 47.93 0.0 0 1 8.67 65.70
  A 47.93 47.93 0.0 0 1 56.60 17.77
  A 47.93 47.93 0.0 0 1 104.53 65.70
  Z
  M 34.49 71.13
  Q 42.99 68.66 48.25 68.46
  C 56.42 68.15 61.05 72.81 65.05 79.23
  Q 67.52 83.19 70.95 89.39
  A 0.66 0.65 -28.4 0 0 71.83 89.65
  Q 89.07 80.43 91.14 61.07
  A 1.37 1.36 -74.6 0 0 90.36 59.69
  Q 79.25 54.44 77.64 53.63
  C 71.22 50.38 67.62 46.46 64.67 39.66
  C 62.38 34.38 59.88 28.05 56.21 24.38
  A 1.24 1.22 64.7 0 0 55.26 24.03
  Q 36.11 25.54 26.37 42.06
  A 1.17 1.16 52.1 0 0 26.26 42.97
  C 28.06 49.15 30.60 55.10 32.71 61.06
  Q 33.46 63.19 33.97 70.77
  A 0.41 0.41 0.0 0 0 34.49 71.13
  Z"
/>
<path fill="#2b2b2b" d="
  M 115.24 72.34
  L 115.24 20.08
  A 0.34 0.34 0.0 0 1 115.58 19.74
  Q 128.19 19.77 133.95 19.72
  C 141.84 19.64 149.51 21.42 153.70 28.01
  C 161.00 39.50 155.59 54.27 141.86 57.26
  C 137.89 58.13 133.23 57.69 128.87 57.76
  A 0.63 0.63 0.0 0 0 128.25 58.39
  L 128.25 72.40
  A 0.60 0.60 0.0 0 1 127.65 73.00
  L 115.91 73.00
  A 0.67 0.66 -0.0 0 1 115.24 72.34
  Z
  M 128.24 32.46
  L 128.26 45.06
  A 0.46 0.46 0.0 0 0 128.72 45.52
  L 137.16 45.51
  A 6.86 6.61 -0.1 0 0 144.01 38.89
  L 144.01 38.59
  A 6.86 6.61 -0.1 0 0 137.14 31.99
  L 128.70 32.00
  A 0.46 0.46 0.0 0 0 128.24 32.46
  Z"
/>
<path fill="#2b2b2b" d="
  M 193.59 55.61
  L 203.28 72.40
  A 0.39 0.39 0.0 0 1 202.94 72.99
  L 189.58 72.99
  A 1.09 1.07 -14.7 0 1 188.64 72.45
  L 180.46 58.28
  A 1.08 1.07 75.0 0 0 179.53 57.74
  L 174.84 57.74
  A 0.60 0.60 0.0 0 0 174.24 58.34
  L 174.24 72.38
  A 0.61 0.61 0.0 0 1 173.63 72.99
  L 161.84 72.99
  A 0.61 0.60 90.0 0 1 161.24 72.38
  L 161.24 20.09
  A 0.31 0.31 0.0 0 1 161.55 19.78
  Q 175.53 19.76 178.24 19.70
  Q 187.18 19.50 191.37 21.43
  C 205.59 27.98 206.88 46.45 193.76 54.92
  A 0.52 0.52 0.0 0 0 193.59 55.61
  Z
  M 174.25 32.45
  L 174.25 45.05
  A 0.46 0.46 0.0 0 0 174.71 45.51
  L 182.99 45.51
  A 6.78 6.56 -0.0 0 0 189.77 38.95
  L 189.77 38.55
  A 6.78 6.56 0.0 0 0 182.99 31.99
  L 174.71 31.99
  A 0.46 0.46 0.0 0 0 174.25 32.45
  Z"
/>
<path fill="#2b2b2b" d="
  M 241.80 54.92
  A 0.52 0.52 0.0 0 0 241.63 55.61
  L 251.33 72.41
  A 0.39 0.39 0.0 0 1 250.99 73.00
  L 237.62 73.01
  A 1.09 1.08 -14.8 0 1 236.68 72.47
  L 228.49 58.29
  A 1.08 1.07 75.0 0 0 227.56 57.75
  L 222.87 57.75
  A 0.60 0.60 0.0 0 0 222.27 58.35
  L 222.28 72.40
  A 0.61 0.61 0.0 0 1 221.67 73.01
  L 209.87 73.02
  A 0.61 0.60 90.0 0 1 209.27 72.41
  L 209.24 20.09
  A 0.31 0.31 0.0 0 1 209.56 19.78
  Q 223.54 19.75 226.26 19.69
  Q 235.20 19.48 239.39 21.41
  C 253.63 27.96 254.92 46.44 241.80 54.92
  Z
  M 222.28 32.38
  L 222.22 45.08
  A 0.40 0.40 0.0 0 0 222.61 45.48
  L 231.10 45.53
  A 6.65 6.44 0.3 0 0 237.79 39.12
  L 237.79 38.50
  A 6.65 6.44 0.3 0 0 231.18 32.03
  L 222.69 31.98
  A 0.40 0.40 0.0 0 0 222.28 32.38
  Z"
/>
<path fill="#2b2b2b" d="
  M 277.48 81.64
  Q 277.34 83.20 275.64 83.35
  A 1.32 1.23 54.0 0 1 275.02 83.23
  L 273.87 82.66
  A 0.76 0.74 41.9 0 0 273.12 82.69
  Q 272.46 83.11 271.52 83.02
  A 0.53 0.53 0.0 0 1 271.05 82.38
  C 271.45 80.42 273.10 80.47 274.53 81.37
  A 0.88 0.86 -44.5 0 0 275.44 81.37
  Q 275.97 81.03 276.95 81.04
  A 0.55 0.54 -87.0 0 1 277.48 81.64
  Z"
/>
<rect fill="#2b2b2b" x="-1.01" y="-5.38" transform="translate(126.50,86.39) rotate(0.1)" width="2.02" height="10.76" rx="0.44"/>
<path fill="#2b2b2b" d="
  M 171.23 84.26
  L 171.23 81.55
  A 0.49 0.49 0.0 0 1 171.72 81.06
  L 172.69 81.06
  A 0.60 0.59 -90.0 0 1 173.28 81.66
  L 173.28 91.26
  A 0.51 0.51 0.0 0 1 172.71 91.77
  C 171.97 91.69 171.58 91.24 170.76 91.48
  C 163.11 93.70 164.21 81.89 170.67 84.63
  A 0.40 0.40 0.0 0 0 171.23 84.26
  Z
  M 171.15 88.01
  A 1.88 1.88 0.0 0 0 169.27 86.13
  A 1.88 1.88 0.0 0 0 167.39 88.01
  A 1.88 1.88 0.0 0 0 169.27 89.89
  A 1.88 1.88 0.0 0 0 171.15 88.01
  Z"
/>
<path fill="#2b2b2b" d="
  M 118.71 88.26
  A 0.38 0.38 0.0 0 0 118.18 88.62
  L 118.20 91.20
  A 0.47 0.47 0.0 0 1 117.74 91.67
  L 116.81 91.68
  A 0.57 0.56 89.5 0 1 116.25 91.11
  L 116.17 81.96
  A 0.49 0.48 -87.0 0 1 116.71 81.47
  C 117.42 81.54 117.79 81.97 118.57 81.73
  C 125.85 79.56 124.89 90.82 118.71 88.26
  Z
  M 118.20 83.96
  L 118.31 86.34
  A 0.46 0.46 0.0 0 0 118.79 86.78
  L 119.48 86.75
  A 2.39 1.47 -2.7 0 0 121.80 85.17
  L 121.78 84.81
  A 2.39 1.47 -2.7 0 0 119.32 83.45
  L 118.63 83.48
  A 0.46 0.46 0.0 0 0 118.20 83.96
  Z"
/>
<path fill="#2b2b2b" d="
  M 196.71 88.73
  L 198.04 91.03
  A 0.51 0.51 0.0 0 1 197.60 91.79
  L 196.97 91.79
  A 1.53 1.52 -15.0 0 1 195.65 91.03
  L 194.38 88.82
  A 0.90 0.89 -60.0 0 0 192.71 89.27
  L 192.71 91.24
  A 0.61 0.60 -0.0 0 1 192.10 91.84
  L 191.47 91.84
  A 0.71 0.71 0.0 0 1 190.76 91.13
  L 190.76 82.13
  A 0.60 0.60 0.0 0 1 191.29 81.53
  Q 192.71 81.38 195.04 81.58
  C 198.48 81.88 199.21 85.86 196.84 87.95
  A 0.63 0.63 0.0 0 0 196.71 88.73
  Z
  M 192.71 83.96
  L 192.79 86.32
  A 0.46 0.46 0.0 0 0 193.26 86.77
  L 194.26 86.74
  A 1.98 1.40 -1.8 0 0 196.20 85.28
  L 196.18 84.80
  A 1.98 1.40 -1.8 0 0 194.16 83.46
  L 193.16 83.49
  A 0.46 0.46 0.0 0 0 192.71 83.96
  Z"
/>
<path fill="#2b2b2b" d="
  M 129.77 87.98
  C 129.80 85.03 132.61 83.47 135.12 84.72
  A 0.90 0.90 0.0 0 0 136.05 84.65
  Q 136.77 84.14 137.18 84.26
  A 0.82 0.81 -82.6 0 1 137.75 85.01
  Q 137.79 86.17 137.77 88.06
  Q 137.75 89.95 137.69 91.11
  A 0.82 0.81 83.9 0 1 137.10 91.85
  Q 136.69 91.96 135.98 91.44
  A 0.90 0.90 0.0 0 0 135.05 91.34
  C 132.51 92.54 129.74 90.92 129.77 87.98
  Z
  M 135.54 88.03
  A 1.86 1.86 0.0 0 0 133.68 86.17
  A 1.86 1.86 0.0 0 0 131.82 88.03
  A 1.86 1.86 0.0 0 0 133.68 89.89
  A 1.86 1.86 0.0 0 0 135.54 88.03
  Z"
/>
<path fill="#2b2b2b" d="
  M 147.54 91.17
  A 0.60 0.59 -89.0 0 1 146.95 91.75
  L 146.05 91.75
  A 0.58 0.57 -88.1 0 1 145.48 91.13
  Q 145.62 89.21 145.42 87.58
  Q 145.32 86.75 145.18 86.62
  A 1.79 1.64 -65.4 0 0 142.35 87.81
  Q 142.14 89.39 142.31 91.07
  A 0.62 0.61 87.4 0 1 141.70 91.74
  L 140.82 91.74
  A 0.58 0.58 0.0 0 1 140.24 91.16
  L 140.24 85.20
  A 1.02 0.95 -43.0 0 1 140.25 85.06
  Q 140.62 83.60 141.96 84.69
  A 0.82 0.82 0.0 0 0 142.85 84.79
  Q 144.11 84.17 145.38 84.35
  A 2.39 2.38 -88.5 0 1 147.43 86.52
  Q 147.63 88.72 147.54 91.17
  Z"
/>
<path fill="#2b2b2b" d="
  M 157.35 88.04
  A 3.85 3.85 0.0 0 1 153.50 91.89
  A 3.85 3.85 0.0 0 1 149.65 88.04
  A 3.85 3.85 0.0 0 1 153.50 84.19
  A 3.85 3.85 0.0 0 1 157.35 88.04
  Z
  M 155.38 88.00
  A 1.88 1.88 0.0 0 0 153.50 86.12
  A 1.88 1.88 0.0 0 0 151.62 88.00
  A 1.88 1.88 0.0 0 0 153.50 89.88
  A 1.88 1.88 0.0 0 0 155.38 88.00
  Z"
/>
<path fill="#2b2b2b" d="
  M 179.0286 84.1952
  A 3.84 3.61 -95.1 0 1 182.9657 87.6991
  A 3.84 3.61 -95.1 0 1 179.7114 91.8448
  A 3.84 3.61 -95.1 0 1 175.7743 88.3409
  A 3.84 3.61 -95.1 0 1 179.0286 84.1952
  Z
  M 178.37 87.27
  L 180.32 87.27
  A 0.41 0.41 0.0 0 0 180.62 86.59
  Q 179.65 85.50 178.14 86.43
  A 0.45 0.45 0.0 0 0 178.37 87.27
  Z
  M 181.17 88.70
  L 178.24 88.70
  A 0.24 0.24 0.0 0 0 178.07 88.77
  Q 177.80 89.10 178.21 89.64
  A 0.62 0.62 0.0 0 0 178.54 89.85
  Q 179.73 90.12 181.26 88.94
  A 0.14 0.13 25.6 0 0 181.17 88.70
  Z"
/>
<path fill="#2b2b2b" d="
  M 203.1175 84.2004
  A 3.85 3.64 -97.2 0 1 207.2113 87.5638
  A 3.85 3.64 -97.2 0 1 204.0825 91.8396
  A 3.85 3.64 -97.2 0 1 199.9887 88.4762
  A 3.85 3.64 -97.2 0 1 203.1175 84.2004
  Z
  M 204.96 86.64
  Q 204.69 86.12 202.95 85.99
  A 0.64 0.64 0.0 0 0 202.69 87.24
  Q 202.86 87.30 204.57 87.29
  A 0.44 0.44 0.0 0 0 204.96 86.64
  Z
  M 205.41 88.72
  L 202.73 88.72
  A 0.54 0.54 0.0 0 0 202.62 89.79
  Q 203.88 90.07 205.50 89.02
  A 0.16 0.16 0.0 0 0 205.41 88.72
  Z"
/>
<path fill="#2b2b2b" d="
  M 209.17 88.00
  C 209.18 84.98 212.19 83.40 214.80 84.92
  A 1.16 1.15 -71.1 0 1 215.36 86.07
  L 215.31 86.35
  A 0.56 0.55 -70.1 0 1 214.48 86.74
  L 213.56 86.21
  A 0.89 0.87 -44.6 0 0 212.67 86.21
  Q 211.32 87.01 211.31 88.01
  Q 211.31 89.00 212.65 89.81
  A 0.89 0.87 45.0 0 0 213.55 89.82
  L 214.47 89.29
  A 0.56 0.55 70.5 0 1 215.29 89.69
  L 215.34 89.97
  A 1.16 1.15 71.5 0 1 214.77 91.12
  C 212.16 92.62 209.16 91.03 209.17 88.00
  Z"
/>
<path fill="#2b2b2b" d="
  M 229.89 91.39
  A 0.40 0.40 0.0 0 0 229.33 91.75
  L 229.30 94.44
  A 0.49 0.49 0.0 0 1 228.80 94.92
  L 227.84 94.91
  A 0.60 0.59 -89.3 0 1 227.26 94.30
  L 227.39 84.77
  A 0.51 0.50 -85.8 0 1 227.96 84.27
  C 228.69 84.36 229.07 84.81 229.89 84.59
  C 237.51 82.48 236.27 94.19 229.89 91.39
  Z
  M 233.18 88.03
  A 1.87 1.87 0.0 0 0 231.31 86.16
  A 1.87 1.87 0.0 0 0 229.44 88.03
  A 1.87 1.87 0.0 0 0 231.31 89.90
  A 1.87 1.87 0.0 0 0 233.18 88.03
  Z"
/>
<path fill="#2b2b2b" d="
  M 244.2244 88.5769
  A 3.22 3.22 0.0 0 1 240.9708 91.7630
  L 240.3509 91.7565
  A 3.22 3.22 0.0 0 1 237.1647 88.5030
  L 237.1756 87.4631
  A 3.22 3.22 0.0 0 1 240.4292 84.2770
  L 241.0491 84.2835
  A 3.22 3.22 0.0 0 1 244.2353 87.5370
  L 244.2244 88.5769
  Z
  M 239.82 87.31
  L 241.74 87.31
  A 0.39 0.38 -24.0 0 0 242.00 86.64
  Q 240.87 85.62 239.57 86.41
  A 0.49 0.48 -60.6 0 0 239.82 87.31
  Z
  M 242.27 88.61
  L 239.90 88.61
  A 0.51 0.51 0.0 0 0 239.39 89.12
  Q 239.40 90.03 240.70 89.95
  Q 240.73 89.95 241.49 89.63
  Q 241.97 89.42 242.41 89.20
  A 0.31 0.31 0.0 0 0 242.27 88.61
  Z"
/>
<path fill="#2b2b2b" d="
  M 250.28 86.29
  L 249.61 86.29
  A 0.91 0.89 -84.5 0 0 248.73 87.03
  Q 248.33 89.15 248.57 91.06
  A 0.67 0.67 0.0 0 1 247.91 91.81
  L 247.14 91.81
  A 0.65 0.65 0.0 0 1 246.49 91.16
  L 246.49 84.90
  A 0.49 0.49 0.0 0 1 247.13 84.43
  Q 248.67 84.95 250.27 84.20
  A 0.35 0.35 0.0 0 1 250.77 84.52
  L 250.77 85.80
  A 0.49 0.49 0.0 0 1 250.28 86.29
  Z"
/>
<path fill="#2b2b2b" d="
  M 260.24 88.11
  Q 260.21 89.62 260.09 91.12
  A 0.65 0.65 0.0 0 1 259.28 91.69
  L 258.18 91.42
  A 1.31 1.28 -47.0 0 0 257.48 91.45
  C 254.80 92.38 252.24 90.97 252.30 87.95
  C 252.36 84.92 254.98 83.61 257.62 84.65
  A 1.31 1.28 49.3 0 0 258.31 84.71
  L 259.42 84.49
  A 0.65 0.65 0.0 0 1 260.21 85.09
  Q 260.27 86.59 260.24 88.11
  Z
  M 258.07 88.04
  A 1.87 1.87 0.0 0 0 256.20 86.17
  A 1.87 1.87 0.0 0 0 254.33 88.04
  A 1.87 1.87 0.0 0 0 256.20 89.91
  A 1.87 1.87 0.0 0 0 258.07 88.04
  Z"
/>
<path fill="#2b2b2b" d="
  M 265.53 93.47
  Q 264.74 93.39 264.82 92.27
  A 1.07 1.05 -75.3 0 0 264.22 91.22
  Q 261.98 90.14 262.53 87.03
  C 263.01 84.33 267.26 83.02 268.37 85.77
  A 0.68 0.68 0.0 0 1 267.37 86.59
  C 266.13 85.78 264.74 86.35 264.50 87.85
  A 1.76 1.71 -10.0 0 0 267.07 89.60
  Q 267.60 89.31 267.73 89.30
  A 0.60 0.60 0.0 0 1 268.37 89.89
  Q 268.37 91.00 267.00 91.63
  A 0.38 0.36 63.4 0 0 266.84 92.15
  L 267.54 93.36
  A 0.54 0.54 0.0 0 1 267.29 94.12
  Q 265.92 94.71 264.80 94.55
  A 0.24 0.23 -11.4 0 1 264.61 94.43
  Q 264.53 94.31 264.72 93.92
  A 0.25 0.25 0.0 0 1 264.97 93.79
  Q 265.38 93.84 265.59 93.66
  A 0.11 0.11 0.0 0 0 265.53 93.47
  Z"
/>
<path fill="#2b2b2b" d="
  M 270.31 87.93
  C 270.38 84.91 273.00 83.61 275.64 84.65
  A 1.31 1.28 49.5 0 0 276.33 84.72
  L 277.44 84.50
  A 0.65 0.65 0.0 0 1 278.22 85.11
  Q 278.28 86.60 278.25 88.12
  Q 278.21 89.63 278.08 91.13
  A 0.65 0.65 0.0 0 1 277.28 91.70
  L 276.18 91.42
  A 1.31 1.28 -46.8 0 0 275.48 91.46
  C 272.80 92.38 270.24 90.96 270.31 87.93
  Z
  M 276.10 88.03
  A 1.88 1.88 0.0 0 0 274.22 86.15
  A 1.88 1.88 0.0 0 0 272.34 88.03
  A 1.88 1.88 0.0 0 0 274.22 89.91
  A 1.88 1.88 0.0 0 0 276.10 88.03
  Z"
/>
<path fill="#2b2b2b" d="
  M 288.10 88.03
  A 3.85 3.85 0.0 0 1 284.25 91.88
  A 3.85 3.85 0.0 0 1 280.40 88.03
  A 3.85 3.85 0.0 0 1 284.25 84.18
  A 3.85 3.85 0.0 0 1 288.10 88.03
  Z
  M 286.14 88.01
  A 1.88 1.88 0.0 0 0 284.26 86.13
  A 1.88 1.88 0.0 0 0 282.38 88.01
  A 1.88 1.88 0.0 0 0 284.26 89.89
  A 1.88 1.88 0.0 0 0 286.14 88.01
  Z"
/>
<path fill="#2b2b2b" d="
  M 217.50 84.99
  A 0.60 0.59 -88.9 0 1 218.08 84.42
  L 218.98 84.42
  A 0.58 0.57 -88.0 0 1 219.54 85.04
  Q 219.40 86.94 219.59 88.56
  Q 219.69 89.38 219.83 89.51
  A 1.78 1.63 -65.2 0 0 222.64 88.34
  Q 222.85 86.77 222.68 85.11
  A 0.61 0.61 0.0 0 1 223.29 84.44
  L 224.16 84.44
  A 0.58 0.58 0.0 0 1 224.74 85.02
  L 224.72 90.93
  A 1.01 0.94 -42.8 0 1 224.71 91.07
  Q 224.34 92.52 223.01 91.43
  A 0.82 0.81 -38.2 0 0 222.13 91.33
  Q 220.88 91.94 219.62 91.76
  A 2.37 2.36 -88.4 0 1 217.59 89.61
  Q 217.40 87.42 217.50 84.99
  Z"
/>
<path fill="#2b2b2b" d="
  M 175.40 97.00
  Q 176.95 96.98 177.50 99.16
  A 0.50 0.50 0.0 0 1 176.65 99.63
  Q 175.80 98.74 175.42 98.74
  Q 175.04 98.74 174.21 99.66
  A 0.50 0.50 0.0 0 1 173.35 99.21
  Q 173.85 97.01 175.40 97.00
  Z"
/>
<rect fill="#2b2b2b" x="-0.99" y="-5.36" transform="translate(164.00,102.50) rotate(0.1)" width="1.98" height="10.72" rx="0.74"/>
<path fill="#2b2b2b" d="
  M 137.62 104.10
  A 0.62 0.61 -34.5 0 0 137.47 104.85
  L 138.72 107.12
  A 0.49 0.49 0.0 0 1 138.28 107.86
  L 137.66 107.84
  A 1.49 1.49 0.0 0 1 136.39 107.07
  L 135.20 104.89
  A 0.87 0.87 0.0 0 0 133.56 105.29
  L 133.52 107.22
  A 0.59 0.59 0.0 0 1 132.91 107.79
  L 132.30 107.77
  A 0.69 0.69 0.0 0 1 131.62 107.07
  L 131.81 98.29
  A 0.59 0.58 88.1 0 1 132.34 97.72
  Q 133.73 97.60 136.00 97.85
  C 139.35 98.21 139.97 102.11 137.62 104.10
  Z
  M 133.51 99.97
  L 133.49 102.49
  A 0.49 0.49 0.0 0 0 133.97 102.99
  L 134.52 102.99
  A 2.48 1.54 0.6 0 0 137.02 101.48
  L 137.02 101.06
  A 2.48 1.54 0.6 0 0 134.56 99.49
  L 134.01 99.49
  A 0.49 0.49 0.0 0 0 133.51 99.97
  Z"
/>
<path fill="#2b2b2b" d="
  M 158.59 98.56
  Q 158.56 98.00 159.39 97.94
  Q 160.10 97.88 160.14 98.79
  A 0.90 0.55 -88.5 0 1 159.52 99.75
  Q 158.66 99.60 158.59 98.56
  Z"
/>
<path fill="#2b2b2b" d="
  M 168.92 99.49
  A 0.66 0.55 -43.6 0 1 167.86 99.56
  Q 167.43 98.59 167.83 98.18
  A 0.81 0.72 -27.4 0 1 169.18 98.52
  Q 169.21 99.02 168.92 99.49
  Z"
/>
<ellipse fill="#2b2b2b" cx="0.00" cy="0.00" transform="translate(199.61,98.81) rotate(-93.4)" rx="0.94" ry="0.77"/>
<rect fill="#2b2b2b" x="-1.00" y="-3.66" transform="translate(159.25,104.14) rotate(0.1)" width="2.00" height="7.32" rx="0.59"/>
<rect fill="#2b2b2b" x="-1.00" y="-3.66" transform="translate(168.50,104.11) rotate(0.3)" width="2.00" height="7.32" rx="0.49"/>
<path fill="#2b2b2b" d="
  M 188.45 107.22
  A 0.59 0.58 -89.1 0 1 187.87 107.79
  L 186.98 107.80
  A 0.58 0.57 -88.3 0 1 186.42 107.18
  Q 186.55 105.28 186.35 103.67
  Q 186.25 102.85 186.11 102.72
  A 1.77 1.63 -65.5 0 0 183.31 103.91
  Q 183.11 105.47 183.28 107.13
  A 0.61 0.61 0.0 0 1 182.68 107.80
  L 181.81 107.80
  A 0.57 0.57 0.0 0 1 181.23 107.23
  L 181.22 101.33
  A 1.01 0.94 -43.1 0 1 181.23 101.19
  Q 181.59 99.75 182.92 100.82
  A 0.81 0.81 0.0 0 0 183.80 100.92
  Q 185.04 100.30 186.30 100.48
  A 2.37 2.36 -88.6 0 1 188.33 102.62
  Q 188.54 104.79 188.45 107.22
  Z"
/>
<rect fill="#2b2b2b" x="198.75" y="100.46" width="2.00" height="7.36" rx="0.65"/>
<path fill="#2b2b2b" d="
  M 210.98 104.15
  Q 211.00 106.05 210.96 107.21
  A 0.83 0.81 82.7 0 1 210.39 107.96
  Q 209.98 108.08 209.26 107.57
  A 0.91 0.90 -40.1 0 0 208.33 107.49
  C 205.81 108.75 203.00 107.18 202.97 104.23
  C 202.94 101.28 205.72 99.66 208.26 100.86
  A 0.91 0.90 38.9 0 0 209.19 100.77
  Q 209.90 100.24 210.31 100.36
  A 0.83 0.81 -83.8 0 1 210.90 101.10
  Q 210.96 102.26 210.98 104.15
  Z
  M 208.76 104.18
  A 1.86 1.86 0.0 0 0 206.90 102.32
  A 1.86 1.86 0.0 0 0 205.04 104.18
  A 1.86 1.86 0.0 0 0 206.90 106.04
  A 1.86 1.86 0.0 0 0 208.76 104.18
  Z"
/>
<path fill="#2b2b2b" d="
  M 123.7543 104.6891
  A 3.22 3.22 0.0 0 1 120.5625 107.9371
  L 119.9226 107.9427
  A 3.22 3.22 0.0 0 1 116.6746 104.7509
  L 116.6657 103.7309
  A 3.22 3.22 0.0 0 1 119.8575 100.4829
  L 120.4974 100.4773
  A 3.22 3.22 0.0 0 1 123.7454 103.6691
  L 123.7543 104.6891
  Z
  M 119.12 103.52
  L 121.22 103.52
  A 0.36 0.35 -17.9 0 0 121.51 102.96
  Q 120.62 101.72 118.90 102.65
  A 0.46 0.46 0.0 0 0 119.12 103.52
  Z
  M 122.69 104.76
  L 119.15 104.76
  A 0.38 0.38 0.0 0 0 118.77 105.20
  Q 118.81 105.49 118.95 105.69
  Q 119.25 106.14 119.83 106.07
  Q 120.97 105.92 122.75 105.03
  A 0.14 0.14 0.0 0 0 122.69 104.76
  Z"
/>
<path fill="#2b2b2b" d="
  M 147.8089 105.1380
  A 3.14 3.14 0.0 0 1 144.3481 107.9205
  L 143.5727 107.8362
  A 3.14 3.14 0.0 0 1 140.7902 104.3755
  L 140.9111 103.2620
  A 3.14 3.14 0.0 0 1 144.3719 100.4795
  L 145.1473 100.5638
  A 3.14 3.14 0.0 0 1 147.9298 104.0245
  L 147.8089 105.1380
  Z
  M 143.59 103.57
  Q 144.53 103.46 145.25 103.62
  A 0.43 0.43 0.0 0 0 145.72 103.01
  Q 145.08 101.73 143.30 102.57
  A 0.53 0.53 0.0 0 0 143.59 103.57
  Z
  M 142.93 105.55
  Q 142.94 105.58 143.68 105.94
  Q 144.36 106.27 144.96 105.99
  Q 146.21 105.39 146.65 105.18
  A 0.24 0.24 0.0 0 0 146.55 104.73
  L 143.50 104.72
  A 0.61 0.60 -11.0 0 0 142.93 105.55
  Z"
/>
<path fill="#2b2b2b" d="
  M 152.77 102.31
  A 0.34 0.33 -69.1 0 0 152.34 102.51
  A 0.25 0.24 -68.4 0 0 152.47 102.82
  Q 153.93 103.41 154.43 103.63
  C 159.20 105.78 153.70 110.02 150.25 106.88
  A 0.85 0.85 0.0 0 1 151.03 105.42
  L 153.69 106.07
  A 0.31 0.30 74.9 0 0 153.98 105.56
  Q 153.54 105.11 152.50 104.86
  Q 149.66 104.17 150.31 101.73
  A 1.23 1.23 0.0 0 1 150.96 100.93
  Q 153.71 99.54 155.66 101.73
  A 0.61 0.60 67.9 0 1 155.24 102.74
  Q 154.01 102.80 152.77 102.31
  Z"
/>
<path fill="#2b2b2b" d="
  M 178.8703 104.9355
  A 3.22 3.22 0.0 0 1 175.4440 107.9351
  L 174.7456 107.8887
  A 3.22 3.22 0.0 0 1 171.7460 104.4623
  L 171.8097 103.5045
  A 3.22 3.22 0.0 0 1 175.2360 100.5049
  L 175.9344 100.5513
  A 3.22 3.22 0.0 0 1 178.9340 103.9777
  L 178.8703 104.9355
  Z
  M 174.19 103.55
  L 176.28 103.55
  A 0.47 0.47 0.0 0 0 176.55 102.70
  Q 174.99 101.58 173.94 103.07
  A 0.31 0.30 17.6 0 0 174.19 103.55
  Z
  M 174.04 104.96
  Q 173.67 105.84 175.32 106.09
  A 0.46 0.41 -48.6 0 0 175.56 106.06
  L 177.68 105.19
  A 0.23 0.23 0.0 0 0 177.59 104.75
  L 174.36 104.75
  A 0.35 0.35 0.0 0 0 174.04 104.96
  Z"
/>
<path fill="#2b2b2b" d="
  M 192.60 104.20
  Q 192.61 105.19 193.95 105.99
  A 0.88 0.87 44.6 0 0 194.84 105.99
  L 195.76 105.46
  A 0.56 0.55 70.1 0 1 196.58 105.85
  L 196.63 106.13
  A 1.16 1.15 71.1 0 1 196.07 107.28
  C 193.48 108.79 190.48 107.22 190.47 104.21
  C 190.47 101.19 193.45 99.61 196.05 101.10
  A 1.16 1.15 -71.5 0 1 196.62 102.24
  L 196.57 102.52
  A 0.56 0.55 -70.4 0 1 195.75 102.92
  L 194.83 102.39
  A 0.88 0.87 -45.0 0 0 193.94 102.40
  Q 192.60 103.21 192.60 104.20
  Z"
/>
</svg>
