<?xml version="1.0" encoding="UTF-8" standalone="no"?>
<!DOCTYPE svg PUBLIC "-//W3C//DTD SVG 1.1//EN" "http://www.w3.org/Graphics/SVG/1.1/DTD/svg11.dtd">
<svg xmlns="http://www.w3.org/2000/svg" version="1.1" viewBox="0.00 0.00 2154.00 1167.00">
<path fill="#000000" d="
  M 119.66 823.87
  A 0.13 0.12 51.1 0 1 119.41 823.84
  Q 119.39 815.30 119.35 605.00
  Q 119.34 577.35 120.01 560.51
  C 122.71 492.61 139.28 421.39 182.69 367.33
  C 212.86 329.77 253.95 303.57 300.01 288.94
  A 0.39 0.39 0.0 0 1 300.52 289.31
  L 300.52 417.81
  A 0.53 0.52 90.0 0 0 301.04 418.34
  L 313.34 418.34
  A 0.56 0.56 0.0 0 0 313.90 417.78
  L 313.90 400.35
  A 0.53 0.53 0.0 0 1 314.47 399.82
  Q 342.31 401.67 366.51 417.59
  A 4.56 4.54 61.5 0 0 369.01 418.34
  L 383.92 418.34
  A 0.57 0.57 0.0 0 1 384.49 418.91
  L 384.49 443.23
  A 0.76 0.76 0.0 0 0 385.09 443.97
  Q 395.99 446.26 406.03 449.46
  Q 411.69 451.26 416.40 454.06
  A 0.35 0.35 0.0 0 0 416.88 453.58
  L 409.10 440.09
  A 0.99 0.99 0.0 0 0 408.75 439.74
  L 405.76 437.88
  A 3.25 3.19 86.7 0 1 404.90 437.10
  Q 399.31 429.73 397.54 427.73
  Q 364.38 390.53 314.47 386.68
  A 0.60 0.60 0.0 0 1 313.91 386.08
  L 313.91 334.32
  A 0.81 0.80 -9.7 0 1 314.45 333.56
  Q 342.72 323.72 373.84 316.10
  Q 453.20 296.65 534.99 291.81
  A 0.37 0.37 0.0 0 1 535.39 292.18
  Q 534.96 365.14 533.23 432.25
  Q 532.06 477.44 530.69 500.99
  Q 528.74 534.45 520.03 565.02
  C 510.78 597.53 492.97 626.46 465.17 646.41
  C 436.30 667.13 400.94 676.12 366.68 682.90
  Q 350.94 686.02 317.80 691.78
  Q 281.08 698.17 249.78 707.76
  C 211.24 719.57 175.99 740.48 149.96 771.71
  A 0.28 0.27 -13.9 0 1 149.49 771.43
  C 162.79 739.98 186.35 715.50 214.16 695.92
  Q 259.45 664.04 313.33 651.54
  A 0.75 0.74 83.7 0 0 313.91 650.81
  L 313.91 626.70
  A 0.65 0.65 0.0 0 1 314.51 626.05
  Q 367.20 621.73 400.72 581.25
  A 0.78 0.78 0.0 0 0 400.47 580.06
  L 389.96 574.69
  A 0.68 0.68 0.0 0 0 389.13 574.85
  C 369.96 597.34 344.16 610.65 314.55 612.97
  A 0.62 0.61 87.9 0 1 313.89 612.35
  L 313.89 598.60
  A 0.43 0.42 -0.0 0 0 313.46 598.18
  L 301.05 598.18
  A 0.54 0.54 0.0 0 0 300.51 598.72
  L 300.51 627.37
  A 0.73 0.71 -8.1 0 1 299.98 628.06
  C 264.49 637.83 231.66 654.45 203.99 677.78
  C 160.32 714.59 130.48 767.56 119.66 823.87
  Z
  M 229.32 466.87
  L 229.32 418.88
  A 0.54 0.53 -0.0 0 1 229.86 418.35
  L 246.12 418.35
  A 1.98 1.90 -61.1 0 0 247.21 418.01
  Q 269.70 402.74 296.81 399.97
  A 0.69 0.68 -88.4 0 0 297.42 399.39
  L 299.18 387.39
  A 0.47 0.46 -88.0 0 0 298.69 386.86
  C 263.31 389.42 230.71 407.41 210.04 436.18
  A 2.19 2.18 15.6 0 1 208.40 437.10
  Q 207.39 437.17 206.14 437.76
  A 1.92 1.88 0.6 0 0 205.22 438.64
  L 194.79 459.05
  A 0.09 0.09 0.0 0 0 194.83 459.17
  L 195.11 459.31
  A 0.28 0.28 0.0 0 0 195.48 459.21
  Q 196.42 457.72 198.29 457.87
  C 208.31 458.65 218.59 463.29 228.64 467.33
  A 0.50 0.50 0.0 0 0 229.32 466.87
  Z
  M 378.17 423.89
  L 235.45 424.13
  A 0.63 0.63 0.0 0 0 234.82 424.77
  L 234.99 519.96
  A 72.78 71.97 89.9 0 0 307.09 592.61
  L 307.13 592.61
  A 72.78 71.97 89.9 0 0 378.97 519.70
  L 378.80 424.51
  A 0.63 0.63 0.0 0 0 378.17 423.89
  Z
  M 428.62 513.92
  L 428.62 501.08
  A 1.41 1.36 28.4 0 0 428.37 500.29
  L 426.83 498.06
  A 1.25 1.24 25.5 0 1 426.59 497.39
  Q 425.03 475.92 415.58 455.29
  A 2.17 2.15 -9.1 0 0 413.84 454.04
  L 400.46 452.65
  A 0.52 0.52 0.0 0 0 399.96 453.42
  Q 409.90 470.84 412.91 490.79
  A 0.31 0.31 0.0 0 1 412.51 491.13
  Q 399.27 486.68 384.90 484.00
  A 0.34 0.33 -84.4 0 0 384.50 484.33
  L 384.50 497.03
  A 0.63 0.63 0.0 0 0 385.01 497.65
  Q 402.71 500.94 417.71 507.08
  Q 425.38 510.21 427.96 514.12
  A 0.36 0.36 0.0 0 0 428.62 513.92
  Z
  M 186.12 514.41
  Q 188.53 510.88 192.50 508.96
  C 204.00 503.40 216.35 500.09 228.69 497.71
  A 0.70 0.70 0.0 0 0 229.26 497.02
  L 229.26 484.34
  A 0.28 0.28 0.0 0 0 228.93 484.07
  Q 214.82 486.73 201.85 491.11
  A 0.34 0.33 85.2 0 1 201.42 490.74
  Q 203.16 478.49 207.80 466.93
  A 1.05 1.03 -62.7 0 0 207.41 465.68
  L 197.70 459.43
  A 0.66 0.66 0.0 0 0 196.74 459.72
  Q 189.03 477.71 187.68 497.49
  A 1.84 1.82 69.7 0 1 187.15 498.65
  L 186.21 499.62
  A 2.09 2.07 -22.9 0 0 185.61 501.08
  L 185.61 514.25
  A 0.28 0.28 0.0 0 0 186.12 514.41
  Z
  M 402.05 581.93
  A 0.24 0.24 0.0 0 0 402.49 582.09
  Q 410.11 570.79 414.63 563.98
  C 415.77 562.27 415.42 561.26 414.92 559.64
  A 1.51 1.51 0.0 0 1 415.00 558.53
  Q 425.09 537.61 426.68 514.37
  A 0.92 0.91 6.5 0 0 425.90 513.40
  L 414.15 511.68
  A 0.28 0.27 -83.5 0 0 413.83 511.94
  Q 412.87 530.61 405.72 547.86
  A 0.23 0.23 0.0 0 1 405.35 547.95
  Q 395.40 538.85 384.21 530.66
  A 0.27 0.27 0.0 0 0 383.78 530.84
  Q 382.19 543.37 376.62 554.86
  A 0.75 0.74 -58.2 0 0 376.83 555.78
  Q 385.79 562.62 393.20 569.29
  C 396.49 572.24 402.51 577.67 402.05 581.93
  Z
  M 206.51 573.46
  C 207.26 571.26 210.39 569.34 212.09 568.51
  Q 224.46 562.48 239.09 559.76
  A 0.42 0.41 -18.2 0 0 239.39 559.17
  L 233.72 547.10
  A 0.27 0.26 71.1 0 0 233.42 546.95
  Q 222.61 549.28 211.77 553.39
  A 0.65 0.65 0.0 0 1 210.96 553.07
  Q 201.58 533.83 200.46 512.28
  A 0.43 0.43 0.0 0 0 199.97 511.88
  L 188.36 513.59
  A 0.97 0.96 -6.7 0 0 187.54 514.62
  Q 189.31 538.43 199.68 559.38
  A 1.23 1.22 -48.8 0 1 199.74 560.35
  L 199.34 561.46
  A 1.07 1.06 -50.5 0 0 199.42 562.34
  L 205.88 573.53
  A 0.35 0.35 0.0 0 0 206.51 573.46
  Z
  M 299.16 625.53
  L 297.34 613.16
  A 0.38 0.38 0.0 0 0 297.01 612.85
  Q 250.77 607.58 222.07 571.12
  A 0.87 0.86 66.6 0 0 221.27 570.80
  L 208.40 572.71
  A 0.62 0.62 0.0 0 0 207.97 573.67
  C 228.75 604.05 262.04 623.51 298.90 625.81
  A 0.25 0.24 -2.7 0 0 299.16 625.53
  Z"
/>
<path fill="#000000" d="
  M 1137.02 368.89
  L 1146.52 384.11
  A 0.58 0.58 0.0 0 1 1146.32 384.92
  L 1111.29 405.14
  A 0.58 0.58 0.0 0 1 1110.51 404.95
  L 1102.78 392.58
  A 0.58 0.58 0.0 0 1 1102.94 391.79
  L 1136.20 368.72
  A 0.58 0.58 0.0 0 1 1137.02 368.89
  Z"
/>
<path fill="#000000" d="
  M 1290.39 483.34
  A 0.32 0.32 0.0 0 0 1290.42 483.96
  C 1305.67 486.87 1315.53 497.11 1317.82 512.45
  Q 1318.45 516.70 1317.00 523.02
  Q 1314.90 532.16 1314.38 533.36
  Q 1308.55 546.77 1298.72 552.97
  C 1285.43 561.33 1271.05 563.11 1255.49 562.56
  Q 1229.52 561.63 1201.92 561.81
  A 0.41 0.40 89.3 0 1 1201.51 561.40
  L 1201.51 548.19
  A 0.90 0.90 0.0 0 1 1202.28 547.30
  L 1219.77 544.72
  A 0.49 0.48 85.9 0 0 1220.18 544.24
  L 1220.18 433.18
  A 0.58 0.57 -86.0 0 0 1219.69 432.61
  L 1202.06 430.03
  A 0.67 0.66 4.6 0 1 1201.50 429.38
  L 1201.50 416.22
  A 0.68 0.67 90.0 0 1 1202.17 415.54
  C 1216.20 415.54 1227.53 415.63 1239.96 415.13
  Q 1256.91 414.45 1272.22 414.88
  C 1294.86 415.52 1315.38 425.60 1314.75 451.41
  C 1314.40 465.60 1304.30 479.17 1290.39 483.34
  Z
  M 1244.35 478.03
  C 1257.58 479.55 1279.58 479.27 1287.02 465.51
  C 1289.52 460.87 1289.91 454.21 1288.75 448.74
  C 1286.26 437.01 1272.84 434.59 1263.00 434.38
  Q 1251.45 434.13 1244.29 434.60
  A 0.72 0.72 0.0 0 0 1243.61 435.32
  L 1243.61 477.19
  A 0.85 0.84 -86.6 0 0 1244.35 478.03
  Z
  M 1243.10 496.65
  L 1243.10 542.24
  A 0.42 0.41 -85.1 0 0 1243.44 542.65
  Q 1256.13 544.85 1268.71 543.24
  C 1279.94 541.80 1289.21 535.17 1290.96 523.80
  Q 1292.13 516.20 1291.60 513.99
  Q 1289.70 506.15 1284.72 502.78
  C 1273.38 495.11 1257.67 495.60 1243.63 496.10
  A 0.55 0.55 0.0 0 0 1243.10 496.65
  Z"
/>
<path fill="#000000" d="
  M 735.03 562.19
  L 679.16 562.19
  A 0.61 0.61 0.0 0 1 678.55 561.58
  L 678.55 548.76
  A 1.14 1.14 0.0 0 1 679.52 547.63
  L 697.00 545.05
  A 0.38 0.37 -4.5 0 0 697.32 544.68
  L 697.32 433.69
  A 0.68 0.67 -86.1 0 0 696.74 433.02
  L 679.10 430.43
  A 0.62 0.62 0.0 0 1 678.57 429.82
  L 678.57 416.63
  A 0.64 0.64 0.0 0 1 679.20 415.99
  C 686.96 415.84 700.58 416.17 711.94 415.57
  Q 726.06 414.81 742.00 415.33
  C 752.94 415.68 764.57 417.89 774.08 424.26
  C 783.95 430.88 788.03 443.37 787.67 455.33
  C 787.01 477.36 770.68 490.78 749.87 494.16
  A 0.28 0.28 0.0 0 0 749.69 494.61
  Q 753.16 498.85 755.23 502.05
  Q 755.61 502.64 783.37 543.98
  A 1.45 1.44 -12.1 0 0 784.35 544.61
  L 798.67 546.71
  A 0.86 0.84 -86.2 0 1 799.40 547.56
  L 799.40 561.30
  A 0.68 0.68 0.0 0 1 798.72 561.98
  L 764.16 561.98
  A 0.59 0.58 -15.5 0 1 763.66 561.70
  L 724.81 499.49
  A 1.38 1.36 -15.6 0 0 723.64 498.84
  L 721.24 498.84
  A 0.63 0.62 -0.0 0 0 720.61 499.46
  L 720.61 544.34
  A 0.86 0.85 4.3 0 0 721.34 545.18
  L 734.93 547.17
  A 0.80 0.80 0.0 0 1 735.61 547.96
  L 735.61 561.61
  A 0.58 0.58 0.0 0 1 735.03 562.19
  Z
  M 721.39 480.97
  Q 731.66 482.23 741.98 480.38
  C 752.63 478.46 761.21 470.76 762.17 459.65
  C 764.47 432.99 739.76 433.50 721.36 434.57
  A 0.76 0.76 0.0 0 0 720.65 435.33
  L 720.73 480.22
  A 0.75 0.75 0.0 0 0 721.39 480.97
  Z"
/>
<path fill="#000000" d="
  M 923.58 561.57
  L 923.58 548.33
  A 0.61 0.60 85.6 0 1 924.09 547.73
  L 941.71 545.13
  A 0.70 0.70 0.0 0 0 942.31 544.44
  L 942.31 433.51
  A 0.46 0.45 4.4 0 0 941.92 433.06
  L 924.37 430.49
  A 0.97 0.97 0.0 0 1 923.54 429.53
  L 923.54 416.61
  A 0.60 0.60 0.0 0 1 924.14 416.01
  C 940.43 415.99 946.35 416.18 961.28 415.39
  Q 967.78 415.04 980.75 415.16
  C 995.15 415.30 1010.27 417.63 1021.26 427.77
  C 1034.15 439.66 1036.61 458.14 1031.35 474.64
  Q 1028.43 483.77 1022.27 490.52
  C 1007.60 506.61 987.41 510.09 966.67 508.60
  A 0.55 0.55 0.0 0 0 966.07 509.15
  L 966.07 544.60
  A 0.49 0.48 -85.9 0 0 966.48 545.08
  L 983.68 547.60
  A 1.36 1.35 4.2 0 1 984.84 548.94
  L 984.84 561.88
  A 0.32 0.32 0.0 0 1 984.52 562.20
  L 924.21 562.20
  A 0.63 0.63 0.0 0 1 923.58 561.57
  Z
  M 966.54 435.35
  L 966.54 487.41
  A 0.71 0.71 0.0 0 0 967.09 488.10
  C 983.23 491.78 1004.72 486.82 1008.36 467.67
  C 1011.48 451.27 1004.34 437.11 986.76 434.97
  Q 977.15 433.79 967.20 434.63
  A 0.73 0.72 -2.6 0 0 966.54 435.35
  Z"
/>
<path fill="#000000" d="
  M 1043.29 430.86
  A 1.17 1.16 -85.7 0 1 1042.30 429.70
  L 1042.29 416.11
  A 0.54 0.53 90.0 0 1 1042.82 415.57
  L 1096.02 415.56
  A 0.39 0.39 0.0 0 1 1096.41 415.95
  L 1096.42 429.93
  A 0.72 0.71 85.8 0 1 1095.81 430.64
  L 1080.50 432.93
  A 0.40 0.38 -7.3 0 0 1080.17 433.34
  Q 1080.20 433.87 1080.19 501.91
  C 1080.18 514.40 1078.92 529.28 1089.93 538.03
  C 1095.54 542.50 1103.54 543.97 1111.07 544.25
  C 1121.93 544.65 1134.19 542.87 1141.35 534.20
  C 1146.89 527.51 1148.14 515.45 1148.14 506.21
  Q 1148.15 469.83 1148.15 432.68
  A 0.61 0.61 0.0 0 0 1147.56 432.07
  Q 1139.42 431.68 1132.30 429.92
  A 0.57 0.55 7.4 0 1 1131.87 429.38
  L 1131.87 415.79
  A 0.58 0.58 0.0 0 1 1132.45 415.21
  L 1185.60 415.20
  A 0.46 0.46 0.0 0 1 1186.06 415.66
  L 1186.06 429.30
  A 0.69 0.69 0.0 0 1 1185.65 429.93
  Q 1179.78 432.46 1172.49 432.99
  A 0.65 0.65 0.0 0 0 1171.89 433.64
  Q 1171.86 436.12 1171.90 503.94
  Q 1171.91 515.92 1169.95 525.38
  C 1162.68 560.45 1130.71 566.21 1100.75 563.79
  C 1086.85 562.67 1072.28 556.75 1064.72 544.99
  C 1057.90 534.37 1056.82 522.95 1056.83 510.22
  Q 1056.93 461.51 1056.83 433.48
  A 0.74 0.74 0.0 0 0 1056.19 432.75
  L 1043.29 430.86
  Z"
/>
<path fill="#000000" d="
  M 1603.74 458.03
  Q 1601.58 447.70 1601.13 438.62
  A 0.81 0.81 0.0 0 0 1600.49 437.87
  Q 1589.03 435.41 1577.52 436.21
  C 1565.62 437.04 1553.91 445.07 1548.17 455.16
  C 1539.57 470.30 1538.69 490.38 1541.82 507.22
  C 1543.58 516.73 1546.83 523.89 1553.40 530.99
  C 1558.96 536.99 1568.78 541.21 1576.58 542.43
  Q 1599.69 546.04 1621.47 536.99
  A 0.34 0.34 0.0 0 1 1621.94 537.28
  L 1623.55 557.82
  A 0.73 0.73 0.0 0 1 1623.06 558.56
  Q 1600.70 566.34 1577.28 564.90
  Q 1557.65 563.70 1544.52 556.07
  C 1528.60 546.82 1519.49 530.68 1516.65 512.51
  C 1512.25 484.39 1517.49 446.51 1543.08 428.47
  C 1566.43 412.01 1595.52 414.15 1622.06 419.58
  A 0.79 0.79 0.0 0 1 1622.69 420.35
  L 1622.69 457.92
  A 0.64 0.64 0.0 0 1 1622.05 458.56
  L 1604.39 458.56
  A 0.67 0.66 84.1 0 1 1603.74 458.03
  Z"
/>
<path fill="#000000" d="
  M 808.12 416.29
  A 0.31 0.31 0.0 0 1 808.43 415.98
  L 904.36 415.97
  A 0.45 0.44 90.0 0 1 904.80 416.42
  L 904.81 450.38
  A 0.61 0.61 0.0 0 1 904.20 450.99
  L 888.33 450.99
  A 0.74 0.74 0.0 0 1 887.60 450.38
  L 884.87 435.21
  A 0.66 0.66 0.0 0 0 884.22 434.66
  L 850.42 434.66
  A 0.64 0.64 0.0 0 0 849.78 435.30
  L 849.80 478.52
  A 0.34 0.33 90.0 0 0 850.13 478.86
  L 877.13 478.87
  A 0.68 0.66 -84.1 0 0 877.78 478.33
  L 880.26 466.05
  A 0.63 0.63 0.0 0 1 880.88 465.54
  L 894.81 465.52
  A 0.43 0.43 0.0 0 1 895.24 465.95
  L 895.27 509.10
  A 0.58 0.58 0.0 0 1 894.69 509.68
  L 881.05 509.67
  A 0.82 0.82 0.0 0 1 880.24 509.01
  L 877.81 496.92
  A 0.68 0.68 0.0 0 0 877.14 496.37
  L 850.43 496.36
  A 0.64 0.64 0.0 0 0 849.79 497.00
  L 849.80 543.24
  A 0.65 0.65 0.0 0 0 850.45 543.89
  L 884.22 543.88
  A 0.67 0.67 0.0 0 0 884.89 543.32
  L 887.45 527.19
  A 0.96 0.96 0.0 0 1 888.40 526.38
  L 904.37 526.38
  A 0.45 0.44 -0.0 0 1 904.82 526.82
  L 904.83 562.26
  A 0.39 0.39 0.0 0 1 904.44 562.65
  L 808.48 562.22
  A 0.36 0.35 0.8 0 1 808.13 561.87
  L 808.13 548.80
  A 1.19 1.19 0.0 0 1 809.16 547.62
  L 826.53 545.15
  A 0.40 0.39 -4.2 0 0 826.87 544.76
  L 826.86 433.73
  A 0.82 0.81 4.1 0 0 826.16 432.93
  L 808.67 430.49
  A 0.63 0.62 -86.4 0 1 808.13 429.87
  L 808.12 416.29
  Z"
/>
<path fill="#000000" d="
  M 1394.87 430.44
  L 1376.85 433.09
  A 0.36 0.36 0.0 0 0 1376.54 433.45
  L 1376.54 542.25
  A 0.36 0.36 0.0 0 0 1376.90 542.61
  L 1409.51 542.61
  A 0.36 0.36 0.0 0 0 1409.87 542.30
  L 1412.52 524.18
  A 0.36 0.36 0.0 0 1 1412.88 523.87
  L 1429.44 523.87
  A 0.36 0.36 0.0 0 1 1429.80 524.23
  L 1429.80 561.84
  A 0.36 0.36 0.0 0 1 1429.44 562.20
  L 1334.37 562.20
  A 0.36 0.36 0.0 0 1 1334.01 561.84
  L 1334.01 548.10
  A 0.36 0.36 0.0 0 1 1334.32 547.74
  L 1352.37 545.08
  A 0.36 0.36 0.0 0 0 1352.68 544.72
  L 1352.68 433.42
  A 0.36 0.36 0.0 0 0 1352.37 433.06
  L 1334.32 430.42
  A 0.36 0.36 0.0 0 1 1334.01 430.06
  L 1334.01 416.36
  A 0.36 0.36 0.0 0 1 1334.37 416.00
  L 1394.82 416.00
  A 0.36 0.36 0.0 0 1 1395.18 416.36
  L 1395.18 430.08
  A 0.36 0.36 0.0 0 1 1394.87 430.44
  Z"
/>
<path fill="#000000" d="
  M 1468.36 416.00
  Q 1497.04 416.00 1498.32 416.04
  A 0.71 0.70 1.0 0 1 1499.01 416.74
  L 1499.01 429.75
  A 0.75 0.74 86.0 0 1 1498.37 430.49
  L 1480.60 433.12
  A 0.48 0.47 -4.3 0 0 1480.19 433.59
  Q 1480.19 435.49 1480.18 489.09
  Q 1480.18 542.69 1480.18 544.59
  A 0.48 0.47 4.3 0 0 1480.59 545.06
  L 1498.36 547.69
  A 0.75 0.74 -86.0 0 1 1499.00 548.43
  L 1499.00 561.44
  A 0.71 0.70 -0.9 0 1 1498.32 562.15
  Q 1497.04 562.19 1468.35 562.18
  Q 1439.67 562.18 1438.38 562.14
  A 0.71 0.70 1.0 0 1 1437.70 561.44
  L 1437.70 548.43
  A 0.75 0.74 86.0 0 1 1438.34 547.69
  L 1456.11 545.06
  A 0.48 0.47 -4.3 0 0 1456.52 544.59
  Q 1456.52 542.69 1456.52 489.09
  Q 1456.53 435.49 1456.52 433.59
  A 0.48 0.47 4.3 0 0 1456.11 433.12
  L 1438.34 430.49
  A 0.75 0.74 -86.0 0 1 1437.70 429.75
  L 1437.71 416.74
  A 0.71 0.70 -0.9 0 1 1438.39 416.04
  Q 1439.67 416.00 1468.36 416.00
  Z"
/>
<path fill="#000000" d="
  M 1633.14 561.82
  L 1633.14 548.07
  A 0.37 0.37 0.0 0 1 1633.46 547.70
  L 1645.44 545.93
  A 0.37 0.37 0.0 0 0 1645.74 545.69
  L 1692.20 416.63
  A 0.37 0.37 0.0 0 1 1692.55 416.39
  L 1720.37 416.39
  A 0.37 0.37 0.0 0 1 1720.72 416.63
  L 1767.58 545.76
  A 0.37 0.37 0.0 0 0 1767.88 546.00
  L 1779.83 547.75
  A 0.37 0.37 0.0 0 1 1780.15 548.12
  L 1780.15 561.81
  A 0.37 0.37 0.0 0 1 1779.78 562.18
  L 1726.45 562.18
  A 0.37 0.37 0.0 0 1 1726.08 561.81
  L 1726.08 547.97
  A 0.37 0.37 0.0 0 1 1726.40 547.60
  L 1741.84 545.33
  A 0.37 0.37 0.0 0 0 1742.14 544.83
  L 1734.91 524.91
  A 0.37 0.37 0.0 0 0 1734.56 524.67
  L 1677.08 524.67
  A 0.37 0.37 0.0 0 0 1676.73 524.91
  L 1669.57 544.79
  A 0.37 0.37 0.0 0 0 1669.87 545.29
  L 1685.31 547.55
  A 0.37 0.37 0.0 0 1 1685.63 547.92
  L 1685.63 561.82
  A 0.37 0.37 0.0 0 1 1685.26 562.19
  L 1633.51 562.19
  A 0.37 0.37 0.0 0 1 1633.14 561.82
  Z
  M 1706.07 506.38
  Q 1722.94 506.34 1728.43 506.35
  A 0.41 0.41 0.0 0 0 1728.81 505.80
  Q 1717.83 475.99 1713.15 463.13
  Q 1709.05 451.87 1706.13 439.60
  Q 1706.08 439.42 1705.90 439.42
  Q 1705.74 439.42 1705.70 439.60
  Q 1702.84 451.88 1698.79 463.16
  Q 1694.17 476.04 1683.32 505.90
  A 0.41 0.41 0.0 0 0 1683.70 506.45
  Q 1689.19 506.42 1706.07 506.38
  Z"
/>
<path fill="#000000" d="
  M 249.62 449.58
  Q 240.24 449.58 240.08 449.57
  A 1.55 1.55 0.0 0 1 239.08 446.89
  Q 239.24 446.74 240.28 446.35
  A 0.85 0.83 -11.0 0 0 240.82 445.58
  L 240.82 440.16
  A 0.74 0.73 -71.7 0 0 240.53 439.58
  C 239.86 439.05 239.31 438.33 239.82 437.50
  Q 240.06 437.11 240.93 436.65
  A 1.37 1.34 -4.4 0 0 241.54 435.95
  Q 241.95 434.86 240.47 432.29
  A 0.64 0.64 0.0 0 1 241.31 431.40
  Q 241.34 431.42 241.78 432.00
  A 0.62 0.62 0.0 0 0 242.84 431.86
  Q 242.93 431.64 242.97 431.61
  A 0.63 0.63 0.0 0 1 243.99 431.75
  L 244.14 432.07
  A 0.48 0.47 52.3 0 0 244.93 432.17
  L 245.45 431.53
  A 0.49 0.48 57.4 0 1 246.29 431.72
  C 246.74 433.48 244.62 433.83 245.47 436.14
  A 0.88 0.88 0.0 0 0 247.16 436.04
  Q 248.06 432.12 246.69 428.72
  A 0.47 0.47 0.0 0 1 247.42 428.19
  L 248.07 428.72
  A 0.57 0.57 0.0 0 0 248.89 428.61
  Q 249.34 428.00 249.60 428.00
  Q 249.91 428.00 250.36 428.61
  A 0.57 0.57 0.0 0 0 251.18 428.72
  L 251.83 428.19
  A 0.47 0.47 0.0 0 1 252.56 428.72
  Q 251.18 432.12 252.08 436.04
  A 0.88 0.88 0.0 0 0 253.77 436.15
  C 254.63 433.84 252.50 433.49 252.96 431.72
  A 0.49 0.48 -57.4 0 1 253.80 431.53
  L 254.31 432.17
  A 0.48 0.47 -52.3 0 0 255.11 432.07
  L 255.25 431.76
  A 0.63 0.63 0.0 0 1 256.28 431.61
  Q 256.31 431.65 256.40 431.87
  A 0.62 0.62 0.0 0 0 257.47 432.00
  Q 257.91 431.42 257.94 431.41
  A 0.64 0.64 0.0 0 1 258.78 432.29
  Q 257.30 434.87 257.70 435.95
  A 1.37 1.34 4.4 0 0 258.31 436.65
  Q 259.18 437.11 259.42 437.51
  C 259.93 438.34 259.38 439.06 258.71 439.58
  A 0.74 0.73 71.8 0 0 258.42 440.17
  L 258.42 445.58
  A 0.85 0.83 11.1 0 0 258.95 446.36
  Q 259.99 446.75 260.15 446.90
  A 1.55 1.55 0.0 0 1 259.15 449.58
  Q 258.99 449.59 249.62 449.58
  Z
  M 245.66 446.41
  L 253.64 446.41
  A 0.22 0.22 0.0 0 0 253.86 446.19
  L 253.86 446.09
  A 6.16 4.19 90.0 0 0 249.67 439.93
  L 249.63 439.93
  A 6.16 4.19 -90.0 0 0 245.44 446.09
  L 245.44 446.19
  A 0.22 0.22 0.0 0 0 245.66 446.41
  Z"
/>
<path fill="#000000" d="
  M 363.87 449.60
  Q 354.51 449.60 354.35 449.60
  A 1.55 1.55 0.0 0 1 353.36 446.92
  Q 353.52 446.77 354.56 446.38
  A 0.85 0.83 -11.1 0 0 355.09 445.61
  L 355.08 440.21
  A 0.74 0.73 -71.8 0 0 354.79 439.62
  C 354.12 439.09 353.58 438.38 354.09 437.55
  Q 354.33 437.16 355.19 436.70
  A 1.37 1.33 -4.4 0 0 355.81 436.00
  Q 356.21 434.92 354.73 432.35
  A 0.64 0.64 0.0 0 1 355.57 431.46
  Q 355.60 431.48 356.03 432.06
  A 0.62 0.62 0.0 0 0 357.10 431.92
  Q 357.19 431.70 357.23 431.67
  A 0.62 0.62 0.0 0 1 358.25 431.81
  L 358.39 432.12
  A 0.47 0.47 0.0 0 0 359.19 432.23
  L 359.70 431.59
  A 0.48 0.48 0.0 0 1 360.54 431.78
  C 360.99 433.54 358.87 433.89 359.73 436.19
  A 0.88 0.88 0.0 0 0 361.41 436.08
  Q 362.31 432.18 360.93 428.79
  A 0.47 0.47 0.0 0 1 361.66 428.25
  L 362.31 428.79
  A 0.57 0.57 0.0 0 0 363.13 428.68
  Q 363.58 428.06 363.89 428.06
  Q 364.15 428.06 364.60 428.68
  A 0.57 0.57 0.0 0 0 365.41 428.78
  L 366.06 428.25
  A 0.47 0.47 0.0 0 1 366.79 428.79
  Q 365.42 432.18 366.32 436.08
  A 0.88 0.88 0.0 0 0 368.00 436.19
  C 368.86 433.88 366.74 433.54 367.19 431.77
  A 0.48 0.48 0.0 0 1 368.03 431.58
  L 368.54 432.23
  A 0.47 0.47 0.0 0 0 369.34 432.12
  L 369.48 431.81
  A 0.62 0.62 0.0 0 1 370.50 431.66
  Q 370.54 431.70 370.63 431.92
  A 0.62 0.62 0.0 0 0 371.69 432.05
  Q 372.13 431.47 372.16 431.46
  A 0.64 0.64 0.0 0 1 373.00 432.34
  Q 371.52 434.91 371.92 435.99
  A 1.37 1.33 4.4 0 0 372.54 436.69
  Q 373.40 437.15 373.64 437.54
  C 374.15 438.38 373.61 439.09 372.94 439.62
  A 0.74 0.73 71.7 0 0 372.65 440.20
  L 372.65 445.60
  A 0.85 0.83 11.0 0 0 373.18 446.38
  Q 374.22 446.77 374.38 446.91
  A 1.55 1.55 0.0 0 1 373.38 449.59
  Q 373.22 449.60 363.87 449.60
  Z
  M 359.85 446.43
  L 367.95 446.37
  A 0.21 0.21 0.0 0 0 368.16 446.16
  L 368.16 446.08
  A 6.17 4.24 89.6 0 0 363.88 439.94
  L 363.84 439.94
  A 6.17 4.24 89.6 0 0 359.64 446.14
  L 359.64 446.22
  A 0.21 0.21 0.0 0 0 359.85 446.43
  Z"
/>
<path fill="#000000" d="
  M 306.99 449.59
  Q 297.62 449.56 297.46 449.56
  A 1.55 1.55 0.0 0 1 296.47 446.87
  Q 296.63 446.72 297.67 446.34
  A 0.85 0.83 -10.9 0 0 298.21 445.56
  L 298.22 440.16
  A 0.74 0.73 -71.6 0 0 297.93 439.57
  C 297.26 439.04 296.72 438.32 297.23 437.49
  Q 297.47 437.10 298.34 436.64
  A 1.37 1.34 -4.2 0 0 298.96 435.94
  Q 299.36 434.86 297.89 432.28
  A 0.64 0.64 0.0 0 1 298.73 431.40
  Q 298.76 431.42 299.20 432.00
  A 0.62 0.62 0.0 0 0 300.26 431.86
  Q 300.36 431.65 300.39 431.61
  A 0.63 0.63 0.0 0 1 301.42 431.76
  L 301.56 432.07
  A 0.47 0.47 0.0 0 0 302.35 432.18
  L 302.87 431.54
  A 0.48 0.48 0.0 0 1 303.71 431.73
  C 304.16 433.50 302.03 433.84 302.88 436.15
  A 0.88 0.88 0.0 0 0 304.57 436.05
  Q 305.48 432.14 304.11 428.74
  A 0.47 0.47 0.0 0 1 304.85 428.20
  L 305.50 428.74
  A 0.57 0.57 0.0 0 0 306.31 428.63
  Q 306.76 428.02 307.03 428.02
  Q 307.34 428.03 307.79 428.64
  A 0.57 0.57 0.0 0 0 308.60 428.75
  L 309.25 428.22
  A 0.47 0.47 0.0 0 1 309.99 428.76
  Q 308.60 432.15 309.48 436.06
  A 0.88 0.88 0.0 0 0 311.17 436.17
  C 312.03 433.87 309.91 433.52 310.37 431.75
  A 0.48 0.48 0.0 0 1 311.21 431.56
  L 311.72 432.21
  A 0.47 0.47 0.0 0 0 312.52 432.11
  L 312.66 431.80
  A 0.63 0.63 0.0 0 1 313.69 431.65
  Q 313.72 431.69 313.81 431.91
  A 0.62 0.62 0.0 0 0 314.88 432.04
  Q 315.32 431.47 315.35 431.45
  A 0.64 0.64 0.0 0 1 316.18 432.34
  Q 314.70 434.91 315.10 435.99
  A 1.37 1.34 4.6 0 0 315.71 436.69
  Q 316.58 437.16 316.81 437.55
  C 317.32 438.39 316.77 439.10 316.10 439.62
  A 0.74 0.73 71.9 0 0 315.81 440.21
  L 315.79 445.62
  A 0.85 0.83 11.2 0 0 316.32 446.40
  Q 317.36 446.79 317.52 446.94
  A 1.55 1.55 0.0 0 1 316.51 449.61
  Q 316.35 449.62 306.99 449.59
  Z
  M 303.08 446.41
  L 311.00 446.39
  A 0.25 0.25 0.0 0 0 311.25 446.14
  L 311.25 446.01
  A 6.06 4.18 89.8 0 0 307.05 439.96
  L 306.99 439.96
  A 6.06 4.18 89.8 0 0 302.83 446.03
  L 302.83 446.16
  A 0.25 0.25 0.0 0 0 303.08 446.41
  Z"
/>
<path fill="#000000" d="
  M 349.29 453.00
  A 0.68 0.68 0.0 0 1 349.97 453.68
  L 349.97 520.12
  A 43.56 43.07 90.0 0 1 306.90 563.68
  A 43.56 43.07 90.0 0 1 263.83 520.12
  L 263.83 453.68
  A 0.68 0.68 0.0 0 1 264.51 453.00
  L 349.29 453.00
  Z
  M 316.16 463.55
  L 298.04 463.55
  A 0.45 0.45 0.0 0 0 297.59 464.00
  L 297.59 476.77
  A 10.44 9.41 90.0 0 0 307.00 487.21
  L 307.20 487.21
  A 10.44 9.41 -90.0 0 0 316.61 476.77
  L 316.61 464.00
  A 0.45 0.45 0.0 0 0 316.16 463.55
  Z
  M 289.83 496.37
  L 271.85 496.31
  A 0.52 0.52 0.0 0 0 271.33 496.83
  L 271.28 509.71
  A 10.26 9.40 -89.8 0 0 280.65 520.00
  L 280.87 520.00
  A 10.26 9.40 -89.8 0 0 290.30 509.77
  L 290.35 496.89
  A 0.52 0.52 0.0 0 0 289.83 496.37
  Z
  M 316.22 496.35
  L 298.02 496.31
  A 0.40 0.40 0.0 0 0 297.62 496.71
  L 297.60 509.82
  A 10.17 9.45 -89.9 0 0 307.03 520.01
  L 307.13 520.01
  A 10.17 9.45 -89.9 0 0 316.60 509.86
  L 316.62 496.75
  A 0.40 0.40 0.0 0 0 316.22 496.35
  Z
  M 342.54 496.37
  L 324.32 496.31
  A 0.40 0.40 0.0 0 0 323.92 496.71
  L 323.87 509.70
  A 10.27 9.36 -89.8 0 0 333.20 520.00
  L 333.50 520.00
  A 10.27 9.36 -89.8 0 0 342.89 509.76
  L 342.94 496.77
  A 0.40 0.40 0.0 0 0 342.54 496.37
  Z
  M 316.16 529.19
  L 298.06 529.19
  A 0.46 0.46 0.0 0 0 297.60 529.65
  L 297.60 542.51
  A 10.40 9.40 90.0 0 0 307.00 552.91
  L 307.22 552.91
  A 10.40 9.40 -90.0 0 0 316.62 542.51
  L 316.62 529.65
  A 0.46 0.46 0.0 0 0 316.16 529.19
  Z"
/>
<circle fill="#000000" cx="302.22" cy="468.85" r="2.10"/>
<circle fill="#000000" cx="311.96" cy="468.85" r="2.10"/>
<circle fill="#000000" cx="307.09" cy="473.73" r="2.09"/>
<circle fill="#000000" cx="302.24" cy="478.58" r="2.13"/>
<circle fill="#000000" cx="311.97" cy="478.59" r="2.13"/>
<path fill="#000000" d="
  M 249.59 508.68
  Q 240.22 508.71 240.06 508.70
  A 1.55 1.55 0.0 0 1 239.06 506.02
  Q 239.22 505.87 240.25 505.48
  A 0.85 0.83 -11.2 0 0 240.79 504.71
  L 240.77 499.30
  A 0.74 0.73 -71.9 0 0 240.48 498.71
  C 239.81 498.19 239.26 497.48 239.77 496.64
  Q 240.00 496.25 240.87 495.78
  A 1.37 1.34 -4.6 0 0 241.48 495.08
  Q 241.88 494.00 240.40 491.43
  A 0.64 0.64 0.0 0 1 241.23 490.55
  Q 241.26 490.56 241.70 491.14
  A 0.62 0.62 0.0 0 0 242.77 491.00
  Q 242.86 490.78 242.89 490.74
  A 0.63 0.63 0.0 0 1 243.92 490.89
  L 244.06 491.20
  A 0.47 0.47 0.0 0 0 244.86 491.30
  L 245.37 490.66
  A 0.48 0.48 0.0 0 1 246.21 490.85
  C 246.67 492.61 244.55 492.96 245.41 495.27
  A 0.88 0.88 0.0 0 0 247.09 495.16
  Q 247.98 491.24 246.60 487.85
  A 0.47 0.47 0.0 0 1 247.33 487.31
  L 247.98 487.85
  A 0.57 0.57 0.0 0 0 248.79 487.74
  Q 249.24 487.12 249.55 487.12
  Q 249.82 487.12 250.27 487.73
  A 0.57 0.57 0.0 0 0 251.08 487.84
  L 251.73 487.30
  A 0.47 0.47 0.0 0 1 252.47 487.84
  Q 251.10 491.23 252.01 495.14
  A 0.88 0.88 0.0 0 0 253.69 495.25
  C 254.54 492.94 252.42 492.59 252.87 490.83
  A 0.48 0.48 0.0 0 1 253.71 490.64
  L 254.22 491.28
  A 0.47 0.47 0.0 0 0 255.02 491.17
  L 255.16 490.86
  A 0.63 0.63 0.0 0 1 256.18 490.71
  Q 256.22 490.74 256.31 490.96
  A 0.62 0.62 0.0 0 0 257.38 491.10
  Q 257.81 490.52 257.84 490.50
  A 0.64 0.64 0.0 0 1 258.68 491.38
  Q 257.21 493.96 257.62 495.04
  A 1.37 1.34 4.3 0 0 258.23 495.74
  Q 259.10 496.19 259.34 496.59
  C 259.85 497.42 259.31 498.13 258.64 498.67
  A 0.74 0.73 71.6 0 0 258.35 499.25
  L 258.36 504.66
  A 0.85 0.83 10.9 0 0 258.90 505.43
  Q 259.94 505.82 260.10 505.97
  A 1.55 1.55 0.0 0 1 259.11 508.65
  Q 258.95 508.66 249.59 508.68
  Z
  M 245.65 505.53
  L 253.53 505.57
  A 0.24 0.24 0.0 0 0 253.77 505.33
  L 253.78 505.21
  A 6.02 4.15 -89.7 0 0 249.66 499.17
  L 249.60 499.17
  A 6.02 4.15 -89.7 0 0 245.42 505.17
  L 245.41 505.29
  A 0.24 0.24 0.0 0 0 245.65 505.53
  Z"
/>
<path fill="#000000" d="
  M 363.92 508.72
  Q 354.58 508.74 354.42 508.74
  A 1.55 1.55 0.0 0 1 353.42 506.07
  Q 353.58 505.92 354.61 505.53
  A 0.85 0.83 -11.2 0 0 355.14 504.75
  L 355.13 499.36
  A 0.74 0.73 -71.9 0 0 354.83 498.77
  C 354.16 498.25 353.62 497.54 354.12 496.70
  Q 354.36 496.31 355.23 495.85
  A 1.37 1.33 -4.6 0 0 355.84 495.15
  Q 356.23 494.07 354.75 491.50
  A 0.64 0.64 0.0 0 1 355.59 490.62
  Q 355.62 490.64 356.06 491.21
  A 0.62 0.62 0.0 0 0 357.12 491.07
  Q 357.21 490.86 357.24 490.82
  A 0.62 0.62 0.0 0 1 358.27 490.96
  L 358.41 491.27
  A 0.47 0.47 0.0 0 0 359.20 491.38
  L 359.72 490.73
  A 0.48 0.48 0.0 0 1 360.55 490.92
  C 361.01 492.68 358.89 493.03 359.75 495.33
  A 0.88 0.88 0.0 0 0 361.44 495.22
  Q 362.32 491.32 360.94 487.93
  A 0.47 0.47 0.0 0 1 361.67 487.40
  L 362.32 487.93
  A 0.57 0.57 0.0 0 0 363.13 487.82
  Q 363.58 487.20 363.89 487.20
  Q 364.15 487.20 364.60 487.81
  A 0.57 0.57 0.0 0 0 365.42 487.92
  L 366.06 487.38
  A 0.47 0.47 0.0 0 1 366.80 487.92
  Q 365.43 491.31 366.34 495.21
  A 0.88 0.88 0.0 0 0 368.02 495.31
  C 368.87 493.01 366.75 492.66 367.20 490.90
  A 0.48 0.48 0.0 0 1 368.04 490.71
  L 368.55 491.35
  A 0.47 0.47 0.0 0 0 369.35 491.24
  L 369.49 490.93
  A 0.62 0.62 0.0 0 1 370.51 490.78
  Q 370.54 490.82 370.64 491.04
  A 0.62 0.62 0.0 0 0 371.70 491.17
  Q 372.13 490.59 372.16 490.58
  A 0.64 0.64 0.0 0 1 373.00 491.46
  Q 371.54 494.03 371.94 495.11
  A 1.37 1.33 4.3 0 0 372.55 495.80
  Q 373.42 496.26 373.66 496.65
  C 374.17 497.48 373.63 498.19 372.96 498.72
  A 0.74 0.73 71.6 0 0 372.67 499.31
  L 372.68 504.70
  A 0.85 0.83 10.9 0 0 373.22 505.48
  Q 374.26 505.86 374.42 506.01
  A 1.55 1.55 0.0 0 1 373.43 508.69
  Q 373.27 508.69 363.92 508.72
  Z
  M 359.95 505.60
  L 367.95 505.60
  A 0.22 0.22 0.0 0 0 368.17 505.38
  L 368.17 505.25
  A 6.11 4.19 90.0 0 0 363.98 499.14
  L 363.92 499.14
  A 6.11 4.19 -90.0 0 0 359.73 505.25
  L 359.73 505.38
  A 0.22 0.22 0.0 0 0 359.95 505.60
  Z"
/>
<circle fill="#000000" cx="275.95" cy="501.69" r="2.14"/>
<circle fill="#000000" cx="285.67" cy="501.71" r="2.14"/>
<circle fill="#000000" cx="302.22" cy="501.71" r="2.13"/>
<circle fill="#000000" cx="311.96" cy="501.70" r="2.13"/>
<circle fill="#000000" cx="328.50" cy="501.71" r="2.16"/>
<circle fill="#000000" cx="338.24" cy="501.70" r="2.12"/>
<circle fill="#000000" cx="307.11" cy="506.57" r="2.09"/>
<circle fill="#000000" cx="280.81" cy="506.55" r="2.13"/>
<circle fill="#000000" cx="333.35" cy="506.56" r="2.12"/>
<circle fill="#000000" cx="275.94" cy="511.45" r="2.11"/>
<circle fill="#000000" cx="285.67" cy="511.43" r="2.10"/>
<circle fill="#000000" cx="302.24" cy="511.46" r="2.10"/>
<circle fill="#000000" cx="311.96" cy="511.45" r="2.10"/>
<circle fill="#000000" cx="328.50" cy="511.44" r="2.12"/>
<circle fill="#000000" cx="338.24" cy="511.45" r="2.10"/>
<circle fill="#000000" cx="302.24" cy="534.54" r="2.11"/>
<circle fill="#000000" cx="311.96" cy="534.54" r="2.12"/>
<circle fill="#000000" cx="307.11" cy="539.43" r="2.09"/>
<circle fill="#000000" cx="311.96" cy="544.30" r="2.14"/>
<circle fill="#000000" cx="302.23" cy="544.31" r="2.13"/>
<path fill="#000000" d="
  M 271.39 566.15
  Q 264.77 572.81 264.65 572.92
  A 1.55 1.55 0.0 0 1 262.04 571.74
  Q 262.05 571.52 262.51 570.51
  A 0.85 0.83 -56.2 0 0 262.33 569.58
  L 258.48 565.76
  A 0.74 0.73 63.1 0 0 257.86 565.55
  C 257.01 565.66 256.12 565.54 255.89 564.59
  Q 255.78 564.14 256.06 563.20
  A 1.37 1.34 -49.6 0 0 256.00 562.27
  Q 255.51 561.22 252.64 560.45
  A 0.64 0.64 0.0 0 1 252.60 559.23
  Q 252.63 559.22 253.35 559.32
  A 0.62 0.62 0.0 0 0 254.01 558.46
  Q 253.92 558.24 253.92 558.19
  A 0.63 0.63 0.0 0 1 254.75 557.57
  L 255.07 557.69
  A 0.48 0.47 7.1 0 0 255.71 557.19
  L 255.61 556.37
  A 0.49 0.48 12.2 0 1 256.34 555.91
  C 257.92 556.84 256.66 558.59 258.91 559.61
  A 0.89 0.88 86.2 0 0 260.03 558.34
  Q 257.88 554.93 254.49 553.52
  A 0.47 0.47 0.0 0 1 254.63 552.62
  L 255.47 552.53
  A 0.57 0.57 0.0 0 0 255.96 551.87
  Q 255.85 551.12 256.07 550.90
  Q 256.25 550.71 257.01 550.83
  A 0.57 0.57 0.0 0 0 257.66 550.32
  L 257.74 549.48
  A 0.47 0.47 0.0 0 1 258.64 549.34
  Q 260.08 552.72 263.50 554.84
  A 0.89 0.88 3.4 0 0 264.77 553.72
  C 263.73 551.48 261.98 552.74 261.05 551.17
  A 0.49 0.48 77.4 0 1 261.50 550.44
  L 262.32 550.53
  A 0.48 0.47 82.5 0 0 262.81 549.89
  L 262.69 549.57
  A 0.63 0.63 0.0 0 1 263.31 548.74
  Q 263.36 548.74 263.58 548.83
  A 0.62 0.62 0.0 0 0 264.43 548.16
  Q 264.33 547.44 264.34 547.41
  A 0.64 0.64 0.0 0 1 265.56 547.44
  Q 266.35 550.31 267.40 550.79
  A 1.37 1.34 -40.8 0 0 268.33 550.84
  Q 269.27 550.55 269.72 550.66
  C 270.67 550.89 270.80 551.78 270.70 552.63
  A 0.74 0.73 26.5 0 0 270.91 553.25
  L 274.75 557.07
  A 0.85 0.83 -34.1 0 0 275.68 557.24
  Q 276.69 556.78 276.91 556.77
  A 1.55 1.55 0.0 0 1 278.12 559.37
  Q 278.01 559.49 271.39 566.15
  Z
  M 266.25 566.70
  L 271.93 561.04
  A 0.25 0.25 0.0 0 0 271.93 560.69
  L 271.84 560.60
  A 6.05 4.23 45.1 0 0 264.58 559.31
  L 264.53 559.35
  A 6.05 4.23 45.1 0 0 265.81 566.62
  L 265.89 566.70
  A 0.25 0.25 0.0 0 0 266.25 566.70
  Z"
/>
<path fill="#000000" d="
  M 358.48 550.90
  Q 358.67 551.08 358.55 551.83
  A 0.57 0.57 0.0 0 0 359.05 552.49
  L 359.89 552.57
  A 0.47 0.47 0.0 0 1 360.03 553.47
  Q 356.65 554.90 354.52 558.31
  A 0.88 0.88 0.0 0 0 355.64 559.58
  C 357.88 558.55 356.62 556.80 358.19 555.87
  A 0.49 0.48 -12.5 0 1 358.92 556.33
  L 358.83 557.15
  A 0.48 0.47 -7.4 0 0 359.47 557.64
  L 359.79 557.52
  A 0.63 0.63 0.0 0 1 360.62 558.14
  Q 360.62 558.19 360.53 558.41
  A 0.62 0.62 0.0 0 0 361.19 559.26
  Q 361.91 559.16 361.94 559.17
  A 0.64 0.64 0.0 0 1 361.91 560.39
  Q 359.04 561.17 358.56 562.22
  A 1.37 1.34 49.4 0 0 358.50 563.15
  Q 358.79 564.09 358.68 564.54
  C 358.45 565.49 357.56 565.61 356.71 565.51
  A 0.74 0.73 -63.3 0 0 356.09 565.72
  L 352.26 569.55
  A 0.85 0.83 56.0 0 0 352.09 570.48
  Q 352.55 571.49 352.56 571.71
  A 1.55 1.55 0.0 0 1 349.96 572.90
  Q 349.84 572.79 343.20 566.16
  Q 336.56 559.53 336.45 559.42
  A 1.55 1.55 0.0 0 1 337.64 556.81
  Q 337.86 556.82 338.87 557.28
  A 0.85 0.83 33.9 0 0 339.80 557.11
  L 343.62 553.27
  A 0.74 0.73 -26.8 0 0 343.83 552.65
  C 343.73 551.80 343.85 550.91 344.80 550.68
  Q 345.25 550.57 346.19 550.86
  A 1.37 1.34 40.5 0 0 347.12 550.80
  Q 348.17 550.32 348.94 547.44
  A 0.64 0.64 0.0 0 1 350.16 547.41
  Q 350.17 547.44 350.08 548.16
  A 0.62 0.62 0.0 0 0 350.93 548.82
  Q 351.15 548.73 351.20 548.73
  A 0.63 0.63 0.0 0 1 351.82 549.56
  L 351.70 549.88
  A 0.48 0.47 -82.7 0 0 352.19 550.52
  L 353.01 550.43
  A 0.49 0.48 -77.6 0 1 353.47 551.16
  C 352.54 552.73 350.79 551.47 349.76 553.71
  A 0.88 0.88 0.0 0 0 351.04 554.83
  Q 354.44 552.70 355.87 549.31
  A 0.47 0.47 0.0 0 1 356.77 549.45
  L 356.85 550.29
  A 0.57 0.57 0.0 0 0 357.50 550.79
  Q 358.26 550.68 358.48 550.90
  Z
  M 342.55 561.04
  L 348.15 566.68
  A 0.25 0.25 0.0 0 0 348.50 566.68
  L 348.60 566.58
  A 6.03 4.19 -44.8 0 0 349.93 559.36
  L 349.89 559.32
  A 6.03 4.19 -44.8 0 0 342.66 560.59
  L 342.56 560.69
  A 0.25 0.25 0.0 0 0 342.55 561.04
  Z"
/>
<path fill="#000000" d="
  M 935.73 671.25
  C 936.48 693.79 928.40 715.15 912.26 730.48
  Q 902.34 739.90 887.14 744.29
  C 867.15 750.06 840.69 747.98 824.08 734.85
  C 808.05 722.19 801.16 702.11 800.24 682.03
  Q 800.15 680.03 799.92 672.95
  C 799.18 650.41 807.25 629.06 823.40 613.73
  Q 833.31 604.31 848.51 599.92
  C 868.50 594.15 894.96 596.23 911.57 609.36
  C 927.60 622.02 934.49 642.10 935.41 662.18
  Q 935.50 664.18 935.73 671.25
  Z
  M 824.88 673.03
  C 824.93 691.58 829.85 714.28 848.76 722.65
  C 868.82 731.53 891.05 725.39 902.53 706.51
  C 909.17 695.58 911.16 684.18 911.12 671.50
  C 911.07 652.95 906.16 630.25 887.24 621.88
  C 867.19 613.00 844.96 619.14 833.47 638.02
  C 826.83 648.95 824.85 660.35 824.88 673.03
  Z"
/>
<path fill="#000000" d="
  M 1442.58 669.33
  L 1496.30 669.33
  A 0.61 0.60 90.0 0 1 1496.90 669.94
  L 1496.90 683.42
  A 0.94 0.93 70.8 0 1 1496.55 684.15
  C 1493.57 686.49 1487.71 687.06 1484.44 687.12
  A 0.44 0.44 0.0 0 0 1484.00 687.56
  L 1484.00 738.33
  A 0.84 0.83 -10.1 0 1 1483.45 739.11
  C 1444.03 753.56 1386.25 753.94 1367.44 707.27
  C 1360.50 690.06 1360.25 667.55 1365.39 649.64
  Q 1368.97 637.15 1377.47 625.67
  C 1393.56 603.94 1420.30 595.57 1446.79 596.88
  Q 1467.76 597.93 1481.04 601.84
  A 0.62 0.61 8.2 0 1 1481.49 602.43
  L 1481.49 638.21
  A 0.34 0.33 -90.0 0 1 1481.16 638.55
  L 1464.33 638.55
  A 0.65 0.64 -4.1 0 1 1463.69 638.00
  L 1461.06 620.18
  A 0.74 0.72 3.1 0 0 1460.51 619.58
  C 1434.84 613.34 1407.91 617.01 1393.92 640.91
  C 1385.86 654.67 1384.80 674.11 1388.46 689.50
  C 1394.55 715.12 1415.08 726.24 1440.19 725.37
  Q 1452.77 724.94 1459.71 722.40
  A 0.73 0.71 80.3 0 0 1460.18 721.72
  L 1460.18 687.07
  A 0.71 0.70 -85.8 0 0 1459.58 686.37
  L 1442.66 683.89
  A 0.89 0.89 0.0 0 1 1441.90 683.01
  L 1441.90 670.02
  A 0.69 0.68 90.0 0 1 1442.58 669.33
  Z"
/>
<path fill="#000000" d="
  M 1789.72 707.18
  L 1806.17 707.18
  A 0.54 0.53 86.3 0 1 1806.70 707.65
  L 1809.25 724.86
  A 0.87 0.85 3.1 0 0 1809.90 725.57
  Q 1821.99 728.53 1833.70 726.11
  C 1844.56 723.86 1852.72 716.34 1852.24 704.49
  C 1851.98 698.07 1849.98 694.43 1844.82 690.60
  C 1834.47 682.90 1821.43 679.70 1810.21 674.55
  C 1801.43 670.51 1790.60 661.51 1788.10 651.66
  Q 1782.56 629.78 1796.03 613.83
  C 1805.05 603.15 1820.11 598.40 1834.27 597.45
  Q 1848.39 596.51 1868.81 600.02
  A 0.70 0.70 0.0 0 1 1869.39 600.71
  L 1869.39 635.12
  A 0.46 0.46 0.0 0 1 1868.93 635.58
  L 1852.47 635.58
  A 0.67 0.66 -6.5 0 1 1851.82 635.07
  Q 1849.84 626.55 1849.41 618.32
  A 0.43 0.42 -85.5 0 0 1849.08 617.93
  C 1834.85 614.82 1814.56 617.18 1812.43 635.47
  C 1811.84 640.55 1813.23 645.51 1817.01 648.99
  C 1825.07 656.39 1836.22 659.56 1846.66 663.63
  C 1858.78 668.37 1869.53 675.06 1875.30 686.47
  Q 1877.05 689.93 1877.89 696.54
  Q 1878.44 700.84 1876.84 706.83
  Q 1874.79 714.51 1873.52 718.00
  C 1869.45 729.12 1859.88 737.79 1849.18 742.41
  C 1842.51 745.28 1835.17 746.98 1827.34 747.38
  Q 1808.02 748.36 1789.58 744.04
  A 0.72 0.72 0.0 0 1 1789.02 743.34
  L 1789.02 707.88
  A 0.70 0.70 0.0 0 1 1789.72 707.18
  Z"
/>
<path fill="#000000" d="
  M 678.75 745.52
  A 0.63 0.63 0.0 0 1 678.12 744.89
  L 678.13 731.65
  A 0.61 0.60 85.6 0 1 678.64 731.05
  L 696.26 728.47
  A 0.70 0.70 0.0 0 0 696.86 727.78
  L 696.93 616.85
  A 0.46 0.45 4.5 0 0 696.54 616.40
  L 678.99 613.82
  A 0.97 0.97 0.0 0 1 678.16 612.86
  L 678.17 599.94
  A 0.60 0.60 0.0 0 1 678.77 599.34
  C 695.06 599.33 700.98 599.52 715.91 598.74
  Q 722.41 598.39 735.38 598.52
  C 749.78 598.67 764.90 601.01 775.88 611.16
  C 788.76 623.05 791.21 641.53 785.94 658.03
  Q 783.02 667.16 776.85 673.91
  C 762.17 689.99 741.98 693.45 721.24 691.95
  A 0.55 0.55 0.0 0 0 720.64 692.50
  L 720.62 727.95
  A 0.49 0.48 -85.9 0 0 721.03 728.43
  L 738.23 730.96
  A 1.36 1.35 4.2 0 1 739.39 732.30
  L 739.38 745.24
  A 0.32 0.32 0.0 0 1 739.06 745.56
  L 678.75 745.52
  Z
  M 721.12 618.60
  L 721.11 670.72
  A 0.72 0.71 6.7 0 0 721.66 671.41
  C 737.81 675.10 759.33 670.14 762.98 650.97
  C 766.11 634.55 758.96 620.37 741.36 618.22
  Q 731.74 617.04 721.78 617.88
  A 0.73 0.72 -2.6 0 0 721.12 618.60
  Z"
/>
<path fill="#000000" d="
  M 1007.31 744.96
  A 0.58 0.58 0.0 0 1 1006.73 745.54
  L 950.86 745.56
  A 0.61 0.61 0.0 0 1 950.25 744.95
  L 950.24 732.13
  A 1.15 1.14 -4.4 0 1 951.21 731.00
  L 968.69 728.41
  A 0.38 0.37 -4.5 0 0 969.01 728.04
  L 968.97 617.05
  A 0.68 0.67 -86.1 0 0 968.39 616.38
  L 950.75 613.79
  A 0.62 0.62 0.0 0 1 950.22 613.18
  L 950.22 599.99
  A 0.64 0.64 0.0 0 1 950.85 599.35
  C 958.61 599.20 972.23 599.53 983.59 598.92
  Q 997.71 598.16 1013.65 598.67
  C 1024.59 599.02 1036.22 601.22 1045.73 607.59
  C 1055.60 614.21 1059.69 626.70 1059.33 638.66
  C 1058.68 660.69 1042.35 674.12 1021.55 677.50
  A 0.28 0.28 0.0 0 0 1021.37 677.95
  Q 1024.84 682.19 1026.91 685.39
  Q 1027.29 685.98 1055.06 727.31
  A 1.45 1.44 -12.1 0 0 1056.04 727.94
  L 1070.37 730.04
  A 0.86 0.84 -86.2 0 1 1071.10 730.89
  L 1071.10 744.63
  A 0.68 0.68 0.0 0 1 1070.42 745.31
  L 1035.86 745.32
  A 0.59 0.58 -15.5 0 1 1035.36 745.04
  L 996.49 682.84
  A 1.38 1.36 -15.7 0 0 995.32 682.19
  L 992.92 682.19
  A 0.63 0.62 -0.0 0 0 992.29 682.81
  L 992.30 727.69
  A 0.86 0.85 4.3 0 0 993.03 728.53
  L 1006.62 730.52
  A 0.80 0.80 0.0 0 1 1007.30 731.31
  L 1007.31 744.96
  Z
  M 992.85 664.29
  Q 1003.14 665.57 1013.48 663.73
  C 1024.15 661.83 1032.76 654.13 1033.74 643.01
  C 1036.09 616.31 1011.34 616.77 992.91 617.81
  A 0.76 0.76 0.0 0 0 992.19 618.57
  L 992.19 663.54
  A 0.76 0.75 -86.6 0 0 992.85 664.29
  Z"
/>
<path fill="#000000" d="
  M 1203.58 612.99
  L 1203.58 599.40
  A 0.54 0.53 -90.0 0 1 1204.11 598.86
  L 1257.30 598.86
  A 0.39 0.39 0.0 0 1 1257.69 599.25
  L 1257.69 613.23
  A 0.72 0.71 85.8 0 1 1257.08 613.94
  L 1241.78 616.22
  A 0.40 0.38 -7.3 0 0 1241.45 616.63
  Q 1241.48 617.16 1241.45 685.19
  C 1241.44 697.68 1240.18 712.56 1251.18 721.31
  C 1256.79 725.78 1264.79 727.25 1272.32 727.53
  C 1283.18 727.93 1295.43 726.15 1302.59 717.49
  C 1308.13 710.80 1309.39 698.74 1309.39 689.50
  Q 1309.41 653.13 1309.41 615.99
  A 0.61 0.61 0.0 0 0 1308.82 615.38
  Q 1300.68 614.99 1293.57 613.23
  A 0.57 0.55 7.4 0 1 1293.14 612.69
  L 1293.14 599.10
  A 0.58 0.58 0.0 0 1 1293.72 598.52
  L 1346.86 598.52
  A 0.46 0.46 0.0 0 1 1347.32 598.98
  L 1347.32 612.62
  A 0.69 0.69 0.0 0 1 1346.91 613.25
  Q 1341.04 615.77 1333.75 616.30
  A 0.65 0.65 0.0 0 0 1333.15 616.95
  Q 1333.12 619.43 1333.14 687.24
  Q 1333.15 699.22 1331.19 708.67
  C 1323.91 743.74 1291.95 749.49 1262.00 747.06
  C 1248.10 745.94 1233.53 740.02 1225.98 728.26
  C 1219.16 717.64 1218.08 706.22 1218.10 693.50
  Q 1218.20 644.79 1218.11 616.77
  A 0.74 0.74 0.0 0 0 1217.47 616.04
  L 1204.57 614.15
  A 1.17 1.16 -85.7 0 1 1203.58 612.99
  Z"
/>
<path fill="#000000" d="
  M 1508.75 614.21
  A 1.17 1.16 -85.8 0 1 1507.76 613.05
  L 1507.75 599.47
  A 0.54 0.53 90.0 0 1 1508.28 598.93
  L 1561.46 598.90
  A 0.39 0.39 0.0 0 1 1561.85 599.29
  L 1561.85 613.27
  A 0.72 0.71 85.8 0 1 1561.24 613.98
  L 1545.95 616.27
  A 0.40 0.38 -7.3 0 0 1545.62 616.68
  Q 1545.65 617.21 1545.65 685.22
  C 1545.64 697.70 1544.39 712.58 1555.39 721.32
  C 1561.00 725.79 1569.00 727.26 1576.53 727.53
  C 1587.38 727.93 1599.63 726.14 1606.78 717.48
  C 1612.32 710.79 1613.57 698.74 1613.57 689.50
  Q 1613.58 653.14 1613.56 616.01
  A 0.61 0.61 0.0 0 0 1612.97 615.40
  Q 1604.83 615.01 1597.72 613.26
  A 0.57 0.55 7.4 0 1 1597.29 612.72
  L 1597.29 599.13
  A 0.58 0.58 0.0 0 1 1597.87 598.55
  L 1650.99 598.53
  A 0.46 0.46 0.0 0 1 1651.45 598.99
  L 1651.46 612.62
  A 0.69 0.69 0.0 0 1 1651.05 613.25
  Q 1645.18 615.78 1637.89 616.31
  A 0.65 0.65 0.0 0 0 1637.29 616.96
  Q 1637.27 619.44 1637.31 687.23
  Q 1637.33 699.21 1635.37 708.65
  C 1628.11 743.72 1596.16 749.48 1566.22 747.06
  C 1552.32 745.95 1537.75 740.03 1530.20 728.28
  C 1523.38 717.67 1522.29 706.25 1522.31 693.53
  Q 1522.39 644.84 1522.29 616.83
  A 0.74 0.74 0.0 0 0 1521.65 616.10
  L 1508.75 614.21
  Z"
/>
<path fill="#000000" d="
  M 1177.12 637.63
  L 1174.39 619.23
  A 0.42 0.42 0.0 0 0 1173.98 618.87
  L 1148.52 618.87
  A 0.42 0.42 0.0 0 0 1148.10 619.29
  L 1148.10 728.01
  A 0.42 0.42 0.0 0 0 1148.46 728.42
  L 1166.54 731.08
  A 0.42 0.42 0.0 0 1 1166.90 731.49
  L 1166.90 745.14
  A 0.42 0.42 0.0 0 1 1166.48 745.56
  L 1106.04 745.56
  A 0.42 0.42 0.0 0 1 1105.62 745.14
  L 1105.62 731.51
  A 0.42 0.42 0.0 0 1 1105.98 731.10
  L 1124.02 728.42
  A 0.42 0.42 0.0 0 0 1124.38 728.01
  L 1124.38 619.28
  A 0.42 0.42 0.0 0 0 1123.96 618.86
  L 1098.12 618.86
  A 0.42 0.42 0.0 0 0 1097.71 619.22
  L 1095.00 637.63
  A 0.42 0.42 0.0 0 1 1094.59 637.99
  L 1078.12 637.99
  A 0.42 0.42 0.0 0 1 1077.70 637.57
  L 1077.70 599.76
  A 0.42 0.42 0.0 0 1 1078.12 599.34
  L 1193.58 599.34
  A 0.42 0.42 0.0 0 1 1194.00 599.76
  L 1194.00 637.57
  A 0.42 0.42 0.0 0 1 1193.58 637.99
  L 1177.53 637.99
  A 0.42 0.42 0.0 0 1 1177.12 637.63
  Z"
/>
<path fill="#000000" d="
  M 1763.10 599.77
  L 1763.10 633.93
  A 0.42 0.42 0.0 0 1 1762.68 634.35
  L 1746.12 634.35
  A 0.42 0.42 0.0 0 1 1745.71 633.99
  L 1743.39 618.38
  A 0.42 0.42 0.0 0 0 1742.98 618.02
  L 1708.53 618.02
  A 0.42 0.42 0.0 0 0 1708.11 618.44
  L 1708.11 661.77
  A 0.42 0.42 0.0 0 0 1708.53 662.19
  L 1735.98 662.19
  A 0.42 0.42 0.0 0 0 1736.39 661.83
  L 1738.24 649.23
  A 0.42 0.42 0.0 0 1 1738.65 648.87
  L 1753.13 648.87
  A 0.42 0.42 0.0 0 1 1753.55 649.29
  L 1753.55 692.57
  A 0.42 0.42 0.0 0 1 1753.13 692.99
  L 1738.69 692.99
  A 0.42 0.42 0.0 0 1 1738.28 692.63
  L 1736.41 680.05
  A 0.42 0.42 0.0 0 0 1736.00 679.69
  L 1708.53 679.69
  A 0.42 0.42 0.0 0 0 1708.11 680.11
  L 1708.11 726.76
  A 0.42 0.42 0.0 0 0 1708.53 727.18
  L 1742.84 727.18
  A 0.42 0.42 0.0 0 0 1743.25 726.82
  L 1745.71 710.05
  A 0.42 0.42 0.0 0 1 1746.12 709.69
  L 1762.68 709.69
  A 0.42 0.42 0.0 0 1 1763.10 710.11
  L 1763.10 745.29
  A 0.42 0.42 0.0 0 1 1762.68 745.71
  L 1666.89 745.71
  A 0.42 0.42 0.0 0 1 1666.47 745.29
  L 1666.47 731.47
  A 0.42 0.42 0.0 0 1 1666.83 731.06
  L 1684.84 728.39
  A 0.42 0.42 0.0 0 0 1685.20 727.98
  L 1685.20 616.81
  A 0.42 0.42 0.0 0 0 1684.84 616.40
  L 1666.85 613.76
  A 0.42 0.42 0.0 0 1 1666.49 613.35
  L 1666.49 599.77
  A 0.42 0.42 0.0 0 1 1666.91 599.35
  L 1762.68 599.35
  A 0.42 0.42 0.0 0 1 1763.10 599.77
  Z"
/>
<path fill="#000000" d="
  M 1936.08 744.93
  A 0.62 0.61 90.0 0 1 1935.47 745.55
  L 1884.16 745.54
  A 0.61 0.60 90.0 0 1 1883.56 744.93
  L 1883.57 731.79
  A 0.74 0.72 86.0 0 1 1884.19 731.06
  L 1895.41 729.35
  A 1.14 1.14 0.0 0 0 1896.32 728.60
  L 1942.52 600.24
  A 0.84 0.84 0.0 0 1 1943.31 599.69
  L 1970.42 599.69
  A 0.92 0.91 79.9 0 1 1971.28 600.30
  L 2017.92 728.75
  A 0.79 0.77 84.0 0 0 2018.53 729.26
  L 2029.98 731.15
  A 0.77 0.76 4.9 0 1 2030.62 731.90
  L 2030.62 745.17
  A 0.36 0.35 -0.0 0 1 2030.26 745.52
  L 1977.10 745.52
  A 0.58 0.58 0.0 0 1 1976.52 744.94
  L 1976.54 731.86
  A 0.78 0.77 -5.4 0 1 1977.18 731.10
  L 1992.23 728.45
  A 0.40 0.40 0.0 0 0 1992.54 727.92
  L 1985.35 708.36
  A 0.55 0.54 80.0 0 0 1984.84 708.00
  L 1927.64 708.01
  A 0.47 0.47 0.0 0 0 1927.20 708.32
  L 1920.00 727.95
  A 0.41 0.41 0.0 0 0 1920.32 728.50
  L 1935.09 730.90
  A 1.19 1.17 4.9 0 1 1936.08 732.06
  L 1936.08 744.93
  Z
  M 1956.53 689.66
  Q 1973.38 689.61 1978.86 689.62
  A 0.41 0.41 0.0 0 0 1979.24 689.06
  Q 1968.26 659.30 1963.58 646.47
  Q 1959.48 635.22 1956.56 622.97
  Q 1956.52 622.80 1956.33 622.80
  Q 1956.18 622.80 1956.14 622.97
  Q 1953.28 635.24 1949.24 646.50
  Q 1944.63 659.37 1933.82 689.19
  A 0.41 0.41 0.0 0 0 1934.20 689.74
  Q 1939.69 689.70 1956.53 689.66
  Z"
/>
<path fill="#000000" d="
  M 280.11 878.94
  A 0.23 0.23 0.0 0 1 279.88 879.17
  Q 240.12 879.37 202.27 872.00
  Q 195.61 870.71 183.82 867.18
  C 163.89 861.22 140.08 849.96 136.41 827.37
  C 134.98 818.54 138.20 807.60 142.01 799.75
  C 150.17 782.92 165.29 769.78 181.34 760.84
  Q 201.34 749.69 224.72 742.97
  Q 252.65 734.95 279.54 732.13
  A 0.52 0.51 -3.0 0 1 280.11 732.64
  L 280.11 878.94
  Z"
/>
</svg>
