<?xml version="1.0" encoding="UTF-8" standalone="no"?>
<!DOCTYPE svg PUBLIC "-//W3C//DTD SVG 1.1//EN" "http://www.w3.org/Graphics/SVG/1.1/DTD/svg11.dtd">
<svg xmlns="http://www.w3.org/2000/svg" version="1.1" viewBox="0.00 0.00 400.00 400.00">
<path fill="#000000" d="
  M 324.97 189.64
  Q 324.34 189.56 323.98 188.95
  Q 319.66 181.59 311.82 176.62
  Q 298.18 167.97 281.28 163.20
  Q 244.33 152.77 204.74 152.80
  C 200.78 152.80 199.99 149.61 200.01 146.10
  Q 200.05 138.73 199.97 131.02
  C 199.94 127.63 197.97 126.28 194.63 126.30
  Q 154.67 126.58 119.20 136.61
  Q 103.70 140.99 88.89 149.64
  A 0.92 0.92 0.0 0 1 87.82 149.55
  Q 82.62 145.20 80.93 140.77
  C 76.32 128.69 99.13 117.79 107.37 114.56
  C 134.71 103.82 165.25 100.05 195.20 99.63
  C 199.51 99.57 200.07 96.71 200.03 92.85
  Q 199.91 79.97 200.14 77.20
  Q 200.35 74.61 202.99 73.50
  A 2.44 2.34 -55.3 0 1 203.92 73.31
  Q 241.00 73.18 275.55 82.09
  C 288.41 85.40 301.23 90.22 312.15 97.33
  C 317.84 101.05 323.11 106.16 325.81 112.84
  Q 326.89 115.53 326.79 121.27
  Q 326.72 124.73 326.78 133.74
  Q 326.79 135.33 326.37 135.97
  A 1.49 1.48 47.5 0 1 323.81 135.85
  C 317.95 124.71 302.39 117.49 290.67 113.30
  C 264.29 103.89 235.04 100.27 206.11 99.69
  C 202.14 99.61 200.02 100.86 200.01 105.00
  Q 199.95 119.53 200.09 121.94
  C 200.30 125.61 203.26 126.23 206.68 126.26
  Q 240.35 126.59 272.24 134.21
  C 288.94 138.20 326.50 150.19 326.73 171.71
  Q 326.83 180.83 326.73 188.18
  A 1.58 1.50 3.8 0 1 324.97 189.64
  Z"
/>
<path fill="#000000" d="
  M 200.25 182.95
  Q 204.25 183.03 208.50 183.10
  Q 236.64 183.61 264.23 189.17
  Q 283.97 193.16 301.35 201.08
  C 311.08 205.51 321.00 212.10 325.48 221.86
  Q 326.82 224.78 326.80 231.84
  Q 326.76 252.06 326.68 252.81
  Q 326.60 253.48 326.22 253.68
  A 1.96 1.69 -28.7 0 1 323.69 253.14
  Q 320.50 247.34 314.98 243.24
  C 301.83 233.46 284.58 227.81 268.27 224.17
  Q 242.21 218.36 214.99 217.38
  Q 214.10 217.34 199.77 217.05
  Q 195.77 216.97 191.52 216.89
  Q 163.38 216.39 135.79 210.83
  Q 116.05 206.84 98.67 198.92
  C 88.94 194.49 79.02 187.90 74.54 178.14
  Q 73.20 175.22 73.22 168.16
  Q 73.26 147.94 73.34 147.19
  Q 73.42 146.52 73.80 146.32
  A 1.96 1.69 -28.7 0 1 76.33 146.86
  Q 79.52 152.66 85.04 156.76
  C 98.19 166.54 115.44 172.19 131.75 175.83
  Q 157.81 181.64 185.03 182.62
  Q 185.92 182.66 200.25 182.95
  Z"
/>
<path fill="#000000" d="
  M 75.08 210.39
  Q 75.71 210.47 76.07 211.08
  Q 80.38 218.44 88.22 223.41
  Q 101.86 232.06 118.75 236.84
  Q 155.69 247.28 195.28 247.26
  C 199.24 247.26 200.03 250.45 200.01 253.96
  Q 199.96 261.33 200.04 269.04
  C 200.07 272.43 202.04 273.78 205.38 273.76
  Q 245.33 273.49 280.80 263.47
  Q 296.30 259.09 311.11 250.45
  A 0.92 0.92 0.0 0 1 312.18 250.54
  Q 317.38 254.89 319.07 259.32
  C 323.67 271.40 300.86 282.29 292.62 285.52
  C 265.28 296.25 234.75 300.01 204.80 300.42
  C 200.49 300.48 199.93 303.34 199.97 307.20
  Q 200.09 320.08 199.86 322.85
  Q 199.65 325.44 197.01 326.55
  A 2.44 2.34 -55.2 0 1 196.08 326.74
  Q 159.00 326.86 124.46 317.94
  C 111.60 314.62 98.78 309.80 87.87 302.69
  C 82.18 298.97 76.91 293.86 74.21 287.18
  Q 73.14 284.49 73.24 278.75
  Q 73.31 275.29 73.25 266.28
  Q 73.24 264.69 73.66 264.05
  A 1.49 1.48 47.5 0 1 76.22 264.17
  C 82.08 275.31 97.63 282.54 109.35 286.73
  C 135.72 296.14 164.97 299.77 193.89 300.36
  C 197.86 300.44 199.98 299.19 199.99 295.05
  Q 200.06 280.52 199.92 278.11
  C 199.71 274.45 196.75 273.82 193.33 273.79
  Q 159.67 273.45 127.78 265.83
  C 111.09 261.83 73.54 249.83 73.31 228.32
  Q 73.21 219.20 73.32 211.85
  A 1.58 1.50 3.8 0 1 75.08 210.39
  Z"
/>
</svg>
